<svg width="64" height="64" viewBox="0 0 64 64" fill="none" xmlns="http://www.w3.org/2000/svg">
<path d="M54 18H14C13.4696 18 12.9609 17.7893 12.5858 17.4142C12.2107 17.0391 12 16.5304 12 16C12 15.4696 12.2107 14.9609 12.5858 14.5858C12.9609 14.2107 13.4696 14 14 14H48C48.5304 14 49.0391 13.7893 49.4142 13.4142C49.7893 13.0391 50 12.5304 50 12C50 11.4696 49.7893 10.9609 49.4142 10.5858C49.0391 10.2107 48.5304 10 48 10H14C12.4087 10 10.8826 10.6321 9.75736 11.7574C8.63214 12.8826 8 14.4087 8 16V48C8 49.5913 8.63214 51.1174 9.75736 52.2426C10.8826 53.3679 12.4087 54 14 54H54C55.0609 54 56.0783 53.5786 56.8284 52.8284C57.5786 52.0783 58 51.0609 58 50V22C58 20.9391 57.5786 19.9217 56.8284 19.1716C56.0783 18.4214 55.0609 18 54 18ZM45 38C44.4067 38 43.8266 37.8241 43.3333 37.4944C42.8399 37.1648 42.4554 36.6962 42.2284 36.148C42.0013 35.5999 41.9419 34.9967 42.0576 34.4147C42.1734 33.8328 42.4591 33.2982 42.8787 32.8787C43.2982 32.4591 43.8328 32.1734 44.4147 32.0576C44.9967 31.9419 45.5999 32.0013 46.148 32.2284C46.6962 32.4554 47.1648 32.8399 47.4944 33.3333C47.8241 33.8266 48 34.4067 48 35C48 35.7956 47.6839 36.5587 47.1213 37.1213C46.5587 37.6839 45.7957 38 45 38Z" fill="white"/>
</svg>
