<svg width="64" height="64" viewBox="0 0 64 64" fill="none" xmlns="http://www.w3.org/2000/svg">
<path d="M26.4478 26.5633L22.6838 36.5639C22.5859 36.8092 22.4233 37.0233 22.2133 37.1835L5.36066 50.1368C4.19336 51.0281 2.58592 49.8374 3.09782 48.4604L16.2306 13.1174C16.3274 12.8606 16.4943 12.6361 16.7124 12.4696C16.9305 12.3031 17.191 12.2011 17.4642 12.1754C17.7374 12.1497 18.0124 12.2012 18.2578 12.324C18.5031 12.4469 18.7091 12.6362 18.8521 12.8704L26.3347 25.2594C26.4533 25.4531 26.5253 25.6717 26.5449 25.898C26.5645 26.1243 26.5313 26.3521 26.4478 26.5633Z" fill="white"/>
<path d="M61.8959 19.2909L51.2453 45.8544C51.1408 46.1154 50.9637 46.341 50.7348 46.5043L41.6876 52.9368C41.4399 53.115 41.1428 53.2114 40.8377 53.2128H7.0331C5.62159 53.2086 5.02552 51.386 6.1735 50.5581L9.48497 48.1573L22.6412 37.8407C22.8872 37.6567 23.1852 37.5552 23.4925 37.5509L37.8905 37.4943C38.1801 37.4896 38.4618 37.3993 38.7002 37.2348C38.9386 37.0703 39.123 36.839 39.2302 36.5699L42.6797 27.8911C42.7681 27.6691 42.8009 27.4288 42.7752 27.1912C42.7495 26.9536 42.6661 26.7259 42.5322 26.5279C42.3983 26.33 42.218 26.1678 42.0071 26.0554C41.7962 25.9431 41.561 25.8841 41.322 25.8835L28.4072 25.849C28.1398 25.8482 27.8777 25.7742 27.6494 25.6351C27.421 25.496 27.235 25.297 27.1116 25.0598L20.5232 12.4127C20.4069 12.1895 20.3501 11.94 20.3581 11.6884C20.3661 11.4368 20.4388 11.1915 20.5691 10.9761C20.6994 10.7607 20.8829 10.5825 21.102 10.4586C21.3211 10.3347 21.5685 10.2692 21.8202 10.2686H56.2995C56.5518 10.2686 56.7998 10.3337 57.0195 10.4578C57.2393 10.5818 57.4233 10.7604 57.5537 10.9764L61.7896 17.987C61.9068 18.1814 61.9774 18.4003 61.9958 18.6265C62.0143 18.8527 61.98 19.0801 61.8959 19.2909Z" fill="white"/>
</svg>
