<svg width="255" height="36" viewBox="0 0 255 36" fill="none" xmlns="http://www.w3.org/2000/svg">
<path d="M36.4286 36L0 0H255L218.571 36H36.4286Z" fill="white"/>
<rect x="84" y="7" width="2" height="21" fill="black"/>
<rect x="137" y="7" width="2" height="21" fill="black"/>
<rect x="88" y="7" width="1" height="21" fill="black"/>
<rect x="141" y="7" width="1" height="21" fill="black"/>
<rect x="107" y="7" width="1" height="21" fill="black"/>
<rect x="160" y="7" width="1" height="21" fill="black"/>
<rect x="127" y="7" width="1" height="21" fill="black"/>
<rect x="180" y="7" width="1" height="21" fill="black"/>
<rect x="99" y="7" width="1" height="21" fill="black"/>
<rect x="152" y="7" width="1" height="21" fill="black"/>
<rect x="118" y="7" width="1" height="21" fill="black"/>
<rect x="171" y="7" width="1" height="21" fill="black"/>
<rect x="91" y="7" width="1" height="21" fill="black"/>
<rect x="144" y="7" width="1" height="21" fill="black"/>
<rect x="111" y="7" width="1" height="21" fill="black"/>
<rect x="164" y="7" width="1" height="21" fill="black"/>
<rect x="130" y="7" width="1" height="21" fill="black"/>
<rect x="183" y="7" width="1" height="21" fill="black"/>
<rect x="101" y="7" width="1" height="21" fill="black"/>
<rect x="154" y="7" width="1" height="21" fill="black"/>
<rect x="121" y="7" width="1" height="21" fill="black"/>
<rect x="174" y="7" width="1" height="21" fill="black"/>
<rect x="95" y="7" width="2" height="21" fill="black"/>
<rect x="148" y="7" width="2" height="21" fill="black"/>
<rect x="114" y="7" width="3" height="21" fill="black"/>
<rect x="167" y="7" width="3" height="21" fill="black"/>
<rect x="133" y="7" width="2" height="21" fill="black"/>
<rect x="187" y="7" width="2" height="21" fill="black"/>
<rect x="104" y="7" width="2" height="21" fill="black"/>
<rect x="157" y="7" width="2" height="21" fill="black"/>
<rect x="124" y="7" width="1" height="21" fill="black"/>
<rect x="177" y="7" width="1" height="21" fill="black"/>
<path d="M53.2821 16.3813C53.2821 16.8734 53.5535 17.3272 53.9918 17.5678L61.9806 21.9528C62.1666 22.0549 62.3763 22.1085 62.5895 22.1085C63.1218 22.1085 63.5952 21.7773 63.7679 21.2841L63.9015 20.9024C63.9667 20.716 64 20.5204 64 20.3234V15.0241C64 14.8192 63.9546 14.6167 63.8669 14.4307L63.8393 14.372C63.6198 13.9063 63.1439 13.608 62.6202 13.608C62.3869 13.608 62.1578 13.6675 61.9552 13.7806L58.2391 15.8557C57.847 16.0746 57.3768 16.1147 56.952 15.9653L56.7641 15.8992C56.2631 15.7231 55.929 15.2579 55.929 14.7365C55.929 14.3004 56.1638 13.8966 56.5467 13.6741L60.9417 11.1203C61.0132 11.0788 61.079 11.0287 61.1378 10.9712C61.5045 10.612 61.5283 10.0371 61.1924 9.65006L61.171 9.62543C61.0905 9.53272 60.9936 9.45501 60.885 9.39604L54.8689 6.13117C54.7104 6.04514 54.5321 6 54.3509 6C53.7606 6 53.2821 6.46873 53.2821 7.04694V16.3813Z" fill="black"/>
<path d="M52.7179 16.3813C52.7179 16.8734 52.4465 17.3272 52.0082 17.5678L44.0194 21.9528C43.8334 22.0549 43.6237 22.1085 43.4105 22.1085C42.8782 22.1085 42.4048 21.7773 42.2321 21.2841L42.0985 20.9024C42.0333 20.716 42 20.5204 42 20.3234V15.0241C42 14.8192 42.0454 14.6167 42.1331 14.4307L42.1607 14.372C42.3802 13.9063 42.8561 13.608 43.3798 13.608C43.6131 13.608 43.8422 13.6675 44.0449 13.7806L47.7609 15.8557C48.153 16.0746 48.6232 16.1147 49.048 15.9653L49.2359 15.8992C49.7369 15.7231 50.071 15.2579 50.071 14.7365C50.071 14.3004 49.8362 13.8966 49.4533 13.6741L45.0583 11.1203C44.9868 11.0788 44.921 11.0287 44.8622 10.9712C44.4955 10.612 44.4717 10.0371 44.8076 9.65006L44.829 9.62543C44.9095 9.53272 45.0064 9.45501 45.115 9.39604L51.1311 6.13117C51.2896 6.04514 51.4679 6 51.6491 6C52.2394 6 52.7179 6.46873 52.7179 7.04694V16.3813Z" fill="black"/>
<path d="M52.2881 17.8829C52.7195 17.6306 53.2564 17.6262 53.692 17.8714L61.6319 22.3408C61.8168 22.4448 61.9713 22.5937 62.0807 22.773C62.3536 23.2206 62.306 23.7885 61.9623 24.1866L61.6962 24.4947C61.5663 24.6451 61.4119 24.7734 61.2393 24.8744L56.5944 27.5918C56.4148 27.6969 56.2141 27.7625 56.0061 27.7842L55.9405 27.791C55.4197 27.8453 54.9142 27.598 54.6457 27.1576C54.5261 26.9615 54.4607 26.7382 54.456 26.5099L54.3693 22.3209C54.3601 21.879 54.1541 21.463 53.8053 21.1823L53.6511 21.0582C53.2398 20.7273 52.6607 20.6849 52.2038 20.9522C51.8215 21.1758 51.588 21.5803 51.5893 22.0165L51.6046 27.0218C51.6049 27.1031 51.5947 27.1842 51.5744 27.2631C51.4476 27.7557 50.9559 28.0704 50.4444 27.9865L50.4119 27.9811C50.2894 27.961 50.1716 27.9194 50.0642 27.8582L44.1176 24.4734C43.9609 24.3842 43.83 24.2574 43.737 24.105C43.4343 23.6086 43.5998 22.9659 44.1066 22.6694L52.2881 17.8829Z" fill="black"/>
</svg>
