<svg width="703" height="386" viewBox="0 0 703 386" fill="none" xmlns="http://www.w3.org/2000/svg">
<path d="M0.459844 86.2592C0.459844 84.9637 1.51002 83.9136 2.80547 83.9136H301.635C302.83 83.9136 303.9 83.1727 304.319 82.0542L328.821 16.7853C329.164 15.8702 330.039 15.264 331.017 15.264H421.579C422.319 15.264 423.031 14.9777 423.565 14.4649L423.384 14.2769L423.565 14.4649L437.41 1.16741C437.847 0.747854 438.429 0.513555 439.035 0.513555H700.238C701.533 0.513555 702.584 1.56373 702.584 2.85918V81.4058C702.584 81.8775 702.441 82.3382 702.175 82.7279L692.657 96.6757C692.332 97.1519 692.159 97.7151 692.159 98.2916V143.404C692.159 143.863 692.269 144.315 692.48 144.723L702.321 163.724C702.493 164.057 702.584 164.427 702.584 164.802V327.063C702.584 327.653 702.361 328.221 701.961 328.654L649.929 384.964C649.485 385.444 648.861 385.717 648.206 385.717H325.62C325.125 385.717 324.642 385.56 324.241 385.269L210.937 302.866C210.447 302.509 209.856 302.317 209.25 302.317H24.2807C23.6232 302.317 22.9959 302.041 22.5516 301.557L1.07638 278.129C0.67983 277.697 0.459844 277.131 0.459844 276.544V86.2592Z" stroke="white" stroke-width="0.52125"/>
</svg>
