<svg width="1348" height="740" viewBox="0 0 1348 740" fill="none" xmlns="http://www.w3.org/2000/svg">
<path d="M0.5 165C0.5 162.515 2.51472 160.5 5 160.5H578.295C580.587 160.5 582.638 159.079 583.444 156.933L630.449 31.7168C631.108 29.9612 632.786 28.7983 634.661 28.7983H808.402C809.822 28.7983 811.187 28.2489 812.212 27.2651L838.774 1.7544C839.612 0.949497 840.729 0.5 841.891 0.5H1343C1345.49 0.5 1347.5 2.51472 1347.5 5V155.689C1347.5 156.594 1347.23 157.478 1346.72 158.225L1328.46 184.984C1327.83 185.897 1327.5 186.978 1327.5 188.084V274.631C1327.5 275.511 1327.71 276.378 1328.12 277.16L1347 313.613C1347.33 314.253 1347.5 314.962 1347.5 315.683V626.973C1347.5 628.105 1347.07 629.195 1346.31 630.027L1246.48 738.054C1245.63 738.976 1244.43 739.5 1243.18 739.5H624.309C623.358 739.5 622.432 739.199 621.662 738.639L404.292 580.552C403.352 579.868 402.22 579.5 401.057 579.5H46.1995C44.9381 579.5 43.7347 578.971 42.8823 578.041L1.68281 533.096C0.922032 532.266 0.5 531.181 0.5 530.055V165Z" stroke="white"/>
</svg>
