<svg width="27" height="27" viewBox="0 0 27 27" fill="none" xmlns="http://www.w3.org/2000/svg">
<g clip-path="url(#clip0_3255_1043)">
<path d="M3 0H7L57 53H53L3 0Z" fill="white"/>
<path d="M-9 0H-5L45 53H41L-9 0Z" fill="white"/>
<path d="M-15 0H-11L39 53H35L-15 0Z" fill="white"/>
<path d="M-21 0H-17L33 53H29L-21 0Z" fill="white"/>
<path d="M-27 0H-23L27 53H23L-27 0Z" fill="white"/>
<path d="M-33 0H-29L21 53H17L-33 0Z" fill="white"/>
<path d="M-39 0H-35L15 53H11L-39 0Z" fill="white"/>
<path d="M-45 0H-41L9 53H5L-45 0Z" fill="white"/>
<path d="M15 0H19L69 53H65L15 0Z" fill="white"/>
<path d="M9 0H13L63 53H59L9 0Z" fill="white"/>
<path d="M-3 0H1L51 53H47L-3 0Z" fill="white"/>
<path d="M21 0H25L75 53H71L21 0Z" fill="white"/>
</g>
<defs>
<clipPath id="clip0_3255_1043">
<rect width="27" height="27" fill="white"/>
</clipPath>
</defs>
</svg>
