<svg width="278" height="201" viewBox="0 0 278 201" fill="none" xmlns="http://www.w3.org/2000/svg">
<path d="M0.238097 3.27257C0.238097 2.08909 1.19749 1.1297 2.38097 1.1297H274.649C275.832 1.1297 276.792 2.0891 276.792 3.27257V59.2508C276.792 59.6739 276.666 60.0875 276.432 60.4395L268.213 72.767C267.927 73.1973 267.773 73.7028 267.773 74.2198V98.5208C267.773 99.1622 268.009 99.7814 268.435 100.261L276.25 109.053C276.599 109.445 276.792 109.952 276.792 110.477V176.297C276.792 177.229 276.189 178.054 275.301 178.338L205.781 200.553C205.57 200.621 205.35 200.655 205.129 200.655L21.9999 200.655C21.3993 200.655 20.8262 200.403 20.4203 199.96L0.80134 178.557C0.439066 178.162 0.238097 177.646 0.238097 177.109V3.27257Z" stroke="white" stroke-width="0.476194"/>
</svg>
