<svg width="29" height="148" viewBox="0 0 29 148" fill="none" xmlns="http://www.w3.org/2000/svg">
<rect x="29" y="75" width="3" height="29" transform="rotate(90 29 75)" fill="white"/>
<rect x="29" y="81" width="2" height="29" transform="rotate(90 29 81)" fill="white"/>
<rect x="29" y="108" width="2" height="29" transform="rotate(90 29 108)" fill="white"/>
<rect x="29" y="136" width="2" height="29" transform="rotate(90 29 136)" fill="white"/>
<rect x="29" y="96" width="1" height="29" transform="rotate(90 29 96)" fill="white"/>
<rect x="29" y="123" width="2" height="29" transform="rotate(90 29 123)" fill="white"/>
<rect x="29" width="3" height="29" transform="rotate(90 29 0)" fill="white"/>
<rect x="29" y="6" width="2" height="29" transform="rotate(90 29 6)" fill="white"/>
<rect x="29" y="33" width="2" height="29" transform="rotate(90 29 33)" fill="white"/>
<rect x="29" y="61" width="2" height="29" transform="rotate(90 29 61)" fill="white"/>
<rect x="29" y="85" width="2" height="29" transform="rotate(90 29 85)" fill="white"/>
<rect x="29" y="113" width="2" height="29" transform="rotate(90 29 113)" fill="white"/>
<rect x="29" y="140" width="2" height="29" transform="rotate(90 29 140)" fill="white"/>
<rect x="29" y="99" width="2" height="29" transform="rotate(90 29 99)" fill="white"/>
<rect x="29" y="127" width="1" height="29" transform="rotate(90 29 127)" fill="white"/>
<rect x="29" y="21" width="1" height="29" transform="rotate(90 29 21)" fill="white"/>
<rect x="29" y="48" width="2" height="29" transform="rotate(90 29 48)" fill="white"/>
<rect x="29" y="10" width="2" height="29" transform="rotate(90 29 10)" fill="white"/>
<rect x="29" y="38" width="2" height="29" transform="rotate(90 29 38)" fill="white"/>
<rect x="29" y="65" width="2" height="29" transform="rotate(90 29 65)" fill="white"/>
<rect x="29" y="90" width="3" height="29" transform="rotate(90 29 90)" fill="white"/>
<rect x="29" y="117" width="4" height="29" transform="rotate(90 29 117)" fill="white"/>
<rect x="29" y="145" width="3" height="29" transform="rotate(90 29 145)" fill="white"/>
<rect x="29" y="103" width="3" height="29" transform="rotate(90 29 103)" fill="white"/>
<rect x="29" y="131" width="2" height="29" transform="rotate(90 29 131)" fill="white"/>
<rect x="29" y="24" width="2" height="29" transform="rotate(90 29 24)" fill="white"/>
<rect x="29" y="52" width="1" height="29" transform="rotate(90 29 52)" fill="white"/>
<rect x="29" y="15" width="3" height="29" transform="rotate(90 29 15)" fill="white"/>
<rect x="29" y="42" width="4" height="29" transform="rotate(90 29 42)" fill="white"/>
<rect x="29" y="70" width="3" height="29" transform="rotate(90 29 70)" fill="white"/>
<rect x="29" y="28" width="3" height="29" transform="rotate(90 29 28)" fill="white"/>
<rect x="29" y="56" width="2" height="29" transform="rotate(90 29 56)" fill="white"/>
</svg>
