<svg width="594" height="333" viewBox="0 0 594 333" fill="none" xmlns="http://www.w3.org/2000/svg">
<path d="M0 5C0 2.23857 2.23858 0 5 0H557.929C559.255 0 560.527 0.526784 561.464 1.46447L592.536 32.5355C593.473 33.4732 594 34.745 594 36.0711V328C594 330.761 591.761 333 589 333H4.99999C2.23856 333 0 330.761 0 328V5Z" fill="white"/>
<rect x="166" y="309" width="3" height="29" transform="rotate(180 166 309)" fill="#363636"/>
<rect x="160" y="309" width="2" height="29" transform="rotate(180 160 309)" fill="#363636"/>
<rect x="156" y="309" width="2" height="29" transform="rotate(180 156 309)" fill="#363636"/>
<rect x="151" y="309" width="3" height="29" transform="rotate(180 151 309)" fill="#363636"/>
<rect x="145" y="309" width="1" height="29" transform="rotate(180 145 309)" fill="#363636"/>
<rect x="142" y="309" width="2" height="29" transform="rotate(180 142 309)" fill="#363636"/>
<rect x="138" y="309" width="3" height="29" transform="rotate(180 138 309)" fill="#363636"/>
<rect x="133" y="309" width="2" height="29" transform="rotate(180 133 309)" fill="#363636"/>
<rect x="128" y="309" width="2" height="29" transform="rotate(180 128 309)" fill="#363636"/>
<rect x="124" y="309" width="4" height="29" transform="rotate(180 124 309)" fill="#363636"/>
<rect x="118" y="309" width="2" height="29" transform="rotate(180 118 309)" fill="#363636"/>
<rect x="114" y="309" width="1" height="29" transform="rotate(180 114 309)" fill="#363636"/>
<rect x="110" y="309" width="2" height="29" transform="rotate(180 110 309)" fill="#363636"/>
<rect x="105" y="309" width="2" height="29" transform="rotate(180 105 309)" fill="#363636"/>
<rect x="101" y="309" width="2" height="29" transform="rotate(180 101 309)" fill="#363636"/>
<rect x="96" y="309" width="3" height="29" transform="rotate(180 96 309)" fill="#363636"/>
<rect x="91" y="309" width="3" height="29" transform="rotate(180 91 309)" fill="#363636"/>
<rect x="85" y="309" width="2" height="29" transform="rotate(180 85 309)" fill="#363636"/>
<rect x="81" y="309" width="2" height="29" transform="rotate(180 81 309)" fill="#363636"/>
<rect x="76" y="309" width="3" height="29" transform="rotate(180 76 309)" fill="#363636"/>
<rect x="70" y="309" width="1" height="29" transform="rotate(180 70 309)" fill="#363636"/>
<rect x="67" y="309" width="2" height="29" transform="rotate(180 67 309)" fill="#363636"/>
<rect x="63" y="309" width="3" height="29" transform="rotate(180 63 309)" fill="#363636"/>
<rect x="58" y="309" width="2" height="29" transform="rotate(180 58 309)" fill="#363636"/>
<rect x="53" y="309" width="2" height="29" transform="rotate(180 53 309)" fill="#363636"/>
<rect x="49" y="309" width="4" height="29" transform="rotate(180 49 309)" fill="#363636"/>
<rect x="43" y="309" width="2" height="29" transform="rotate(180 43 309)" fill="#363636"/>
<rect x="39" y="309" width="1" height="29" transform="rotate(180 39 309)" fill="#363636"/>
<rect x="35" y="309" width="2" height="29" transform="rotate(180 35 309)" fill="#363636"/>
<rect x="30" y="309" width="2" height="29" transform="rotate(180 30 309)" fill="#363636"/>
<rect x="26" y="309" width="2" height="29" transform="rotate(180 26 309)" fill="#363636"/>
<rect x="21" y="309" width="3" height="29" transform="rotate(180 21 309)" fill="#363636"/>
<path d="M179.436 309V278.76H204.636C205.56 278.76 206.4 278.984 207.156 279.432C207.94 279.88 208.556 280.496 209.004 281.28C209.452 282.036 209.676 282.876 209.676 283.8V303.96C209.676 304.884 209.452 305.738 209.004 306.522C208.556 307.278 207.94 307.88 207.156 308.328C206.4 308.776 205.56 309 204.636 309H179.436ZM184.476 305.598H204.636C205.084 305.598 205.462 305.444 205.77 305.136C206.106 304.8 206.274 304.408 206.274 303.96V283.8C206.274 283.352 206.106 282.974 205.77 282.666C205.462 282.33 205.084 282.162 204.636 282.162H184.476C184.028 282.162 183.636 282.33 183.3 282.666C182.992 282.974 182.838 283.352 182.838 283.8V303.96C182.838 304.408 182.992 304.8 183.3 305.136C183.636 305.444 184.028 305.598 184.476 305.598ZM214.263 309V283.8C214.263 282.876 214.487 282.036 214.935 281.28C215.383 280.496 215.985 279.88 216.741 279.432C217.525 278.984 218.379 278.76 219.303 278.76H239.463C240.387 278.76 241.227 278.984 241.983 279.432C242.767 279.88 243.383 280.496 243.831 281.28C244.279 282.036 244.503 282.876 244.503 283.8V309H241.101V297.954H217.665V309H214.263ZM217.665 294.552H241.101V283.8C241.101 283.352 240.933 282.974 240.597 282.666C240.289 282.33 239.911 282.162 239.463 282.162H219.303C218.855 282.162 218.463 282.33 218.127 282.666C217.819 282.974 217.665 283.352 217.665 283.8V294.552ZM254.045 309C253.121 309 252.267 308.776 251.483 308.328C250.727 307.88 250.125 307.278 249.677 306.522C249.229 305.738 249.005 304.884 249.005 303.96V283.8C249.005 282.876 249.229 282.036 249.677 281.28C250.125 280.496 250.727 279.88 251.483 279.432C252.267 278.984 253.121 278.76 254.045 278.76H274.205C275.129 278.76 275.969 278.984 276.725 279.432C277.509 279.88 278.125 280.496 278.573 281.28C279.021 282.036 279.245 282.876 279.245 283.8V303.96C279.245 304.884 279.021 305.738 278.573 306.522C278.125 307.278 277.509 307.88 276.725 308.328C275.969 308.776 275.129 309 274.205 309H254.045ZM254.045 305.598H274.205C274.653 305.598 275.031 305.444 275.339 305.136C275.675 304.8 275.843 304.408 275.843 303.96V283.8C275.843 283.352 275.675 282.974 275.339 282.666C275.031 282.33 274.653 282.162 274.205 282.162H254.045C253.597 282.162 253.205 282.33 252.869 282.666C252.561 282.974 252.407 283.352 252.407 283.8V303.96C252.407 304.408 252.561 304.8 252.869 305.136C253.205 305.444 253.597 305.598 254.045 305.598ZM283.67 309V278.802H308.87C309.794 278.802 310.634 279.04 311.39 279.516C312.174 279.964 312.79 280.566 313.238 281.322C313.686 282.078 313.91 282.918 313.91 283.842V292.704C313.91 293.628 313.686 294.468 313.238 295.224C312.79 295.98 312.174 296.596 311.39 297.072C310.634 297.52 309.794 297.744 308.87 297.744H287.072V309H283.67ZM288.71 294.3H308.87C309.318 294.3 309.696 294.146 310.004 293.838C310.34 293.53 310.508 293.152 310.508 292.704V283.842C310.508 283.394 310.34 283.016 310.004 282.708C309.696 282.372 309.318 282.204 308.87 282.204H288.71C288.262 282.204 287.87 282.372 287.534 282.708C287.226 283.016 287.072 283.394 287.072 283.842V292.704C287.072 293.152 287.226 293.53 287.534 293.838C287.87 294.146 288.262 294.3 288.71 294.3ZM316.777 309V278.76H344.371V282.162H320.179V292.158H339.625V295.602H320.179V305.598H344.371V309H316.777ZM352.292 309C351.368 309 350.514 308.776 349.73 308.328C348.974 307.88 348.372 307.278 347.924 306.522C347.476 305.738 347.252 304.884 347.252 303.96V283.8C347.252 282.876 347.476 282.036 347.924 281.28C348.372 280.496 348.974 279.88 349.73 279.432C350.514 278.984 351.368 278.76 352.292 278.76H372.452C373.376 278.76 374.216 278.984 374.972 279.432C375.756 279.88 376.372 280.496 376.82 281.28C377.268 282.036 377.492 282.876 377.492 283.8V303.96C377.492 304.884 377.268 305.738 376.82 306.522C376.372 307.278 375.756 307.88 374.972 308.328C374.216 308.776 373.376 309 372.452 309H352.292ZM352.292 305.598H372.452C372.9 305.598 373.278 305.444 373.586 305.136C373.922 304.8 374.09 304.408 374.09 303.96V283.8C374.09 283.352 373.922 282.974 373.586 282.666C373.278 282.33 372.9 282.162 372.452 282.162H352.292C351.844 282.162 351.452 282.33 351.116 282.666C350.808 282.974 350.654 283.352 350.654 283.8V303.96C350.654 304.408 350.808 304.8 351.116 305.136C351.452 305.444 351.844 305.598 352.292 305.598ZM381.918 309V278.802H407.118C408.042 278.802 408.882 279.04 409.638 279.516C410.422 279.964 411.038 280.566 411.486 281.322C411.934 282.078 412.158 282.918 412.158 283.842V292.704C412.158 293.628 411.934 294.468 411.486 295.224C411.038 295.98 410.422 296.596 409.638 297.072C408.882 297.52 408.042 297.744 407.118 297.744H385.32V309H381.918ZM386.958 294.3H407.118C407.566 294.3 407.944 294.146 408.252 293.838C408.588 293.53 408.756 293.152 408.756 292.704V283.842C408.756 283.394 408.588 283.016 408.252 282.708C407.944 282.372 407.566 282.204 407.118 282.204H386.958C386.51 282.204 386.118 282.372 385.782 282.708C385.474 283.016 385.32 283.394 385.32 283.842V292.704C385.32 293.152 385.474 293.53 385.782 293.838C386.118 294.146 386.51 294.3 386.958 294.3ZM414.982 309V278.718H418.384V305.598H445.222V309H414.982ZM447.555 309V278.76H475.149V282.162H450.957V292.158H470.403V295.602H450.957V305.598H475.149V309H447.555Z" fill="#363636"/>
<path d="M552.009 291.093L549.304 298.281C549.234 298.457 549.117 298.611 548.966 298.726L536.853 308.036C536.014 308.677 534.859 307.821 535.227 306.832L544.666 281.429C544.735 281.244 544.855 281.083 545.012 280.963C545.169 280.843 545.356 280.77 545.552 280.752C545.749 280.733 545.946 280.77 546.123 280.859C546.299 280.947 546.447 281.083 546.55 281.251L551.928 290.156C552.013 290.295 552.065 290.452 552.079 290.615C552.093 290.777 552.069 290.941 552.009 291.093Z" fill="#363636"/>
<path d="M577.485 285.866L569.83 304.958C569.755 305.146 569.628 305.308 569.463 305.425L562.961 310.049C562.783 310.177 562.569 310.246 562.35 310.247H538.053C537.038 310.244 536.61 308.934 537.435 308.339L539.815 306.613L549.271 299.198C549.448 299.066 549.662 298.993 549.883 298.99L560.232 298.949C560.44 298.946 560.642 298.881 560.814 298.763C560.985 298.645 561.117 298.478 561.194 298.285L563.674 292.047C563.737 291.887 563.761 291.715 563.742 291.544C563.724 291.373 563.664 291.21 563.568 291.067C563.472 290.925 563.342 290.808 563.19 290.728C563.039 290.647 562.87 290.605 562.698 290.604L553.415 290.579C553.223 290.579 553.035 290.526 552.871 290.426C552.707 290.326 552.573 290.183 552.484 290.012L547.749 280.922C547.665 280.762 547.624 280.582 547.63 280.401C547.636 280.221 547.688 280.044 547.782 279.889C547.875 279.735 548.007 279.607 548.165 279.517C548.322 279.428 548.5 279.381 548.681 279.381H573.463C573.644 279.381 573.823 279.428 573.981 279.517C574.138 279.606 574.271 279.734 574.364 279.89L577.409 284.929C577.493 285.068 577.544 285.226 577.557 285.388C577.57 285.551 577.546 285.714 577.485 285.866Z" fill="#363636"/>
</svg>
