<svg width="64" height="64" viewBox="0 0 64 64" fill="none" xmlns="http://www.w3.org/2000/svg">
<path d="M45.334 41.334V45.334C45.334 46.934 44.2673 48.0007 42.6673 48.0007C41.0673 48.0007 40.0007 46.934 40.0007 45.334V41.334H24.0007V45.334C24.0007 46.934 22.934 48.0007 21.334 48.0007C19.734 48.0007 18.6673 46.934 18.6673 45.334V41.334H13.334C11.4673 41.334 9.60065 40.8007 8.00065 40.0007V50.6673C8.00065 55.2007 11.4673 58.6673 16.0007 58.6673H48.0007C52.534 58.6673 56.0007 55.2007 56.0007 50.6673V40.0007C54.4007 40.8007 52.534 41.334 50.6673 41.334H45.334ZM56.0007 16.0007H45.334V13.334C45.334 8.80065 41.8673 5.33398 37.334 5.33398H26.6673C22.134 5.33398 18.6673 8.80065 18.6673 13.334V16.0007H8.00065C6.40065 16.0007 5.33398 17.0673 5.33398 18.6673V29.334C5.33398 33.8673 8.80065 37.334 13.334 37.334H50.6673C55.2007 37.334 58.6673 33.8673 58.6673 29.334V18.6673C58.6673 17.0673 57.6007 16.0007 56.0007 16.0007ZM40.0007 16.0007H24.0007V13.334C24.0007 11.734 25.0673 10.6673 26.6673 10.6673H37.334C38.934 10.6673 40.0007 11.734 40.0007 13.334V16.0007Z" fill="white"/>
</svg>
