<svg width="17" height="17" viewBox="0 0 17 17" fill="none" xmlns="http://www.w3.org/2000/svg">
<path fill-rule="evenodd" clip-rule="evenodd" d="M4.18561 0C1.87396 0 0 1.87973 0 4.1985C0 6.51727 1.87396 8.397 4.18561 8.397H8.37121V4.1985C8.37121 1.87973 6.49725 0 4.18561 0ZM4.21171 2.458C3.23899 2.458 2.45045 3.24897 2.45045 4.22469C2.45045 5.2004 3.23899 5.99137 4.21171 5.99137H5.97297V4.22469C5.97297 3.24897 5.18443 2.458 4.21171 2.458Z" fill="white"/>
<path fill-rule="evenodd" clip-rule="evenodd" d="M12.8144 0C15.126 0 17 1.87973 17 4.1985C17 6.51727 15.126 8.397 12.8144 8.397H8.62879V4.1985C8.62879 1.87973 10.5027 0 12.8144 0ZM12.7883 2.458C13.761 2.458 14.5495 3.24897 14.5495 4.22469C14.5495 5.2004 13.761 5.99137 12.7883 5.99137H11.027V4.22469C11.027 3.24897 11.8156 2.458 12.7883 2.458Z" fill="white"/>
<path fill-rule="evenodd" clip-rule="evenodd" d="M4.18561 17C1.87396 17 0 15.1203 0 12.8015C0 10.4827 1.87396 8.603 4.18561 8.603H8.37121V12.8015C8.37121 15.1203 6.49725 17 4.18561 17ZM4.21171 14.542C3.23899 14.542 2.45045 13.751 2.45045 12.7753C2.45045 11.7996 3.23899 11.0086 4.21171 11.0086H5.97297V12.7753C5.97297 13.751 5.18443 14.542 4.21171 14.542Z" fill="white"/>
<path fill-rule="evenodd" clip-rule="evenodd" d="M12.8144 17C15.126 17 17 15.1203 17 12.8015C17 10.4827 15.126 8.603 12.8144 8.603H8.62879V12.8015C8.62879 15.1203 10.5027 17 12.8144 17ZM12.7883 14.542C13.761 14.542 14.5495 13.751 14.5495 12.7753C14.5495 11.7996 13.761 11.0086 12.7883 11.0086H11.027V12.7753C11.027 13.751 11.8156 14.542 12.7883 14.542Z" fill="white"/>
</svg>
