<svg width="38" height="28" viewBox="0 0 38 28" fill="none" xmlns="http://www.w3.org/2000/svg">
<path d="M15.1092 10.6522L12.7003 17.0522C12.6377 17.2092 12.5336 17.3462 12.3992 17.4487L1.61424 25.7383C0.86722 26.3087 -0.161477 25.5467 0.166116 24.6655L8.57053 2.04737C8.63248 1.88305 8.73933 1.73942 8.87891 1.63285C9.01849 1.52627 9.1852 1.46104 9.36004 1.44456C9.53488 1.42809 9.71083 1.46105 9.86786 1.53968C10.0249 1.61831 10.1567 1.73945 10.2482 1.88932L15.0368 9.81779C15.1127 9.94175 15.1587 10.0817 15.1713 10.2265C15.1839 10.3713 15.1626 10.517 15.1092 10.6522Z" fill="white"/>
<path d="M37.7934 5.99905L30.9775 22.9986C30.9106 23.1656 30.7972 23.31 30.6508 23.4145L24.861 27.5311C24.7024 27.6451 24.5123 27.7068 24.317 27.7077H2.68347C1.78016 27.705 1.3987 26.5386 2.13336 26.0088L4.25256 24.4723L12.672 17.8701C12.8295 17.7524 13.0202 17.6875 13.2168 17.6847L22.4309 17.6485C22.6163 17.6455 22.7966 17.5877 22.9491 17.4824C23.1017 17.3771 23.2197 17.2291 23.2883 17.0569L25.4958 11.5028C25.5524 11.3607 25.5734 11.207 25.557 11.0549C25.5405 10.9029 25.4871 10.7571 25.4014 10.6304C25.3158 10.5038 25.2004 10.4 25.0654 10.3281C24.9304 10.2562 24.7799 10.2184 24.627 10.218L16.3621 10.196C16.1909 10.1954 16.0232 10.1481 15.877 10.0591C15.7309 9.97004 15.6119 9.84271 15.5329 9.69088L11.3166 1.59728C11.2422 1.4544 11.2058 1.29477 11.2109 1.13376C11.2161 0.972742 11.2626 0.81576 11.346 0.677919C11.4293 0.540077 11.5468 0.426016 11.687 0.34671C11.8272 0.267404 11.9855 0.225523 12.1466 0.225098L34.2119 0.225098C34.3734 0.225111 34.5321 0.266817 34.6728 0.346176C34.8134 0.425535 34.9311 0.539859 35.0146 0.678078L37.7254 5.16461C37.8004 5.289 37.8456 5.42907 37.8574 5.57385C37.8692 5.71862 37.8473 5.86416 37.7934 5.99905Z" fill="white"/>
</svg>
