<svg width="290" height="375" viewBox="0 0 290 375" fill="none" xmlns="http://www.w3.org/2000/svg">
<g filter="url(#filter0_d_3322_394)">
<path d="M0 35.9305C0 32.6585 1.46715 29.5589 3.99769 27.4847L33.9893 2.90143C35.9415 1.30123 38.3878 0.426758 40.9121 0.426758H279.079C285.111 0.426758 290 5.31603 290 11.3473V364.443C290 370.475 285.111 375.364 279.079 375.364H10.9205C4.88928 375.364 0 370.475 0 364.443V331.859C0 329.203 0.967824 326.639 2.72233 324.645L17.2986 308.081C19.0531 306.087 20.0209 303.522 20.0209 300.867V148.899C20.0209 146.086 18.936 143.382 16.992 141.35L3.02889 126.752C1.08496 124.72 0 122.016 0 119.204V35.9305Z" fill="#212121"/>
<path d="M0.303347 35.9305C0.303347 32.7494 1.72974 29.7359 4.18999 27.7193L34.1816 3.13603C36.0796 1.58029 38.4579 0.730105 40.9121 0.730105H279.079C284.943 0.730105 289.697 5.48357 289.697 11.3473V364.443C289.697 370.307 284.943 375.061 279.079 375.061H10.9205C5.05681 375.061 0.303347 370.307 0.303347 364.443V331.859C0.303347 329.277 1.24429 326.784 2.95006 324.845L17.5263 308.281C19.3296 306.232 20.3243 303.596 20.3243 300.867V148.899C20.3243 146.008 19.2092 143.229 17.2112 141.14L3.2481 126.543C1.35817 124.567 0.303347 121.938 0.303347 119.204V35.9305Z" stroke="white" stroke-width="0.606695"/>
</g>
<defs>
<filter id="filter0_d_3322_394" x="-2.42678" y="0.426758" width="294.854" height="379.791" filterUnits="userSpaceOnUse" color-interpolation-filters="sRGB">
<feFlood flood-opacity="0" result="BackgroundImageFix"/>
<feColorMatrix in="SourceAlpha" type="matrix" values="0 0 0 0 0 0 0 0 0 0 0 0 0 0 0 0 0 0 127 0" result="hardAlpha"/>
<feOffset dy="2.42678"/>
<feGaussianBlur stdDeviation="1.21339"/>
<feComposite in2="hardAlpha" operator="out"/>
<feColorMatrix type="matrix" values="0 0 0 0 0 0 0 0 0 0 0 0 0 0 0 0 0 0 0.25 0"/>
<feBlend mode="normal" in2="BackgroundImageFix" result="effect1_dropShadow_3322_394"/>
<feBlend mode="normal" in="SourceGraphic" in2="effect1_dropShadow_3322_394" result="shape"/>
</filter>
</defs>
</svg>
