<svg width="291" height="574" viewBox="0 0 291 574" fill="none" xmlns="http://www.w3.org/2000/svg">
<rect width="0.799264" height="4.85445" transform="matrix(0.707107 -0.707107 -0.707107 -0.707107 273.783 539.997)" fill="white"/>
<rect width="0.532843" height="4.85445" transform="matrix(0.707107 -0.707107 -0.707107 -0.707107 272.842 540.938)" fill="white"/>
<rect width="0.532843" height="4.85445" transform="matrix(0.707107 -0.707107 -0.707107 -0.707107 272.088 541.692)" fill="white"/>
<rect width="0.532843" height="4.85445" transform="matrix(0.707107 -0.707107 -0.707107 -0.707107 271.146 542.635)" fill="white"/>
<rect width="0.266421" height="4.85445" transform="matrix(0.707107 -0.707107 -0.707107 -0.707107 270.393 543.388)" fill="white"/>
<rect width="0.532843" height="4.85445" transform="matrix(0.707107 -0.707107 -0.707107 -0.707107 269.639 544.141)" fill="white"/>
<rect width="0.532843" height="4.85445" transform="matrix(0.707107 -0.707107 -0.707107 -0.707107 267.754 546.025)" fill="white"/>
<rect width="1.06569" height="4.85445" transform="matrix(0.707107 -0.707107 -0.707107 -0.707107 268.508 545.271)" fill="white"/>
<rect width="0.532843" height="4.85445" transform="matrix(0.707107 -0.707107 -0.707107 -0.707107 266.812 546.968)" fill="white"/>
<rect width="0.532843" height="4.85445" transform="matrix(0.707107 -0.707107 -0.707107 -0.707107 265.117 548.662)" fill="white"/>
<rect width="0.799264" height="4.85445" transform="matrix(0.707107 -0.707107 -0.707107 -0.707107 265.871 547.909)" fill="white"/>
<rect width="0.266421" height="4.85445" transform="matrix(0.707107 -0.707107 -0.707107 -0.707107 264.551 549.228)" fill="white"/>
<rect width="0.799264" height="4.85445" transform="matrix(0.707107 -0.707107 -0.707107 -0.707107 263.422 550.357)" fill="white"/>
<rect width="0.532843" height="4.85445" transform="matrix(0.707107 -0.707107 -0.707107 -0.707107 262.48 551.3)" fill="white"/>
<rect width="0.532843" height="4.85445" transform="matrix(0.707107 -0.707107 -0.707107 -0.707107 261.725 552.054)" fill="white"/>
<rect width="0.799264" height="4.85445" transform="matrix(0.707107 -0.707107 -0.707107 -0.707107 260.596 553.185)" fill="white"/>
<rect width="0.799264" height="4.85445" transform="matrix(0.707107 -0.707107 -0.707107 -0.707107 259.654 554.126)" fill="white"/>
<rect width="0.532843" height="4.85445" transform="matrix(0.707107 -0.707107 -0.707107 -0.707107 258.713 555.067)" fill="white"/>
<rect width="0.532843" height="4.85445" transform="matrix(0.707107 -0.707107 -0.707107 -0.707107 257.959 555.821)" fill="white"/>
<rect width="0.532843" height="4.85445" transform="matrix(0.707107 -0.707107 -0.707107 -0.707107 257.018 556.764)" fill="white"/>
<rect width="0.266421" height="4.85445" transform="matrix(0.707107 -0.707107 -0.707107 -0.707107 256.264 557.517)" fill="white"/>
<rect width="0.532843" height="4.85445" transform="matrix(0.707107 -0.707107 -0.707107 -0.707107 255.51 558.271)" fill="white"/>
<rect width="0.532843" height="4.85445" transform="matrix(0.707107 -0.707107 -0.707107 -0.707107 253.625 560.154)" fill="white"/>
<rect width="1.06569" height="4.85445" transform="matrix(0.707107 -0.707107 -0.707107 -0.707107 254.379 559.4)" fill="white"/>
<rect width="0.532843" height="4.85445" transform="matrix(0.707107 -0.707107 -0.707107 -0.707107 252.684 561.097)" fill="white"/>
<rect width="0.532843" height="4.85445" transform="matrix(0.707107 -0.707107 -0.707107 -0.707107 250.988 562.792)" fill="white"/>
<rect width="0.799264" height="4.85445" transform="matrix(0.707107 -0.707107 -0.707107 -0.707107 251.742 562.038)" fill="white"/>
<rect width="0.266421" height="4.85445" transform="matrix(0.707107 -0.707107 -0.707107 -0.707107 250.422 563.356)" fill="white"/>
<rect width="0.799264" height="4.85445" transform="matrix(0.707107 -0.707107 -0.707107 -0.707107 249.293 564.486)" fill="white"/>
<rect width="0.532843" height="4.85445" transform="matrix(0.707107 -0.707107 -0.707107 -0.707107 248.35 565.429)" fill="white"/>
<rect width="0.532843" height="4.85445" transform="matrix(0.707107 -0.707107 -0.707107 -0.707107 247.596 566.183)" fill="white"/>
<rect width="0.799264" height="4.85445" transform="matrix(0.707107 -0.707107 -0.707107 -0.707107 246.467 567.313)" fill="white"/>
<path d="M0.863278 386.5L0.863278 506.646C0.863278 506.911 0.968636 507.165 1.15617 507.353L7.4336 513.63C7.62114 513.818 7.72649 514.072 7.72649 514.338L7.72649 522.716C7.72649 522.981 7.62114 523.235 7.4336 523.423L1.15617 529.7C0.968637 529.888 0.863279 530.142 0.863279 530.407L0.863281 572.6C0.863281 573.152 1.311 573.6 1.86329 573.6L259.27 573.6C259.535 573.6 259.79 573.494 259.977 573.307L290.025 543.259C290.212 543.072 290.318 542.817 290.318 542.552L290.318 386.5" stroke="white" stroke-width="0.6"/>
<path fill-rule="evenodd" clip-rule="evenodd" d="M1.1625 386.5V0H0.5625V386.5H1.1625ZM290.618 386.5V0H290.018L290.018 386.5H290.618Z" fill="white"/>
</svg>
