<svg width="1399" height="463" viewBox="0 0 1399 463" fill="none" xmlns="http://www.w3.org/2000/svg">
<path d="M1397.5 463V108.886C1397.5 107.559 1396.97 106.288 1396.04 105.35L1334.96 44.2789C1334.03 43.3412 1332.76 42.8145 1331.43 42.8145H1078H748.571C747.245 42.8145 745.973 42.2877 745.036 41.35L706.964 3.27892C706.027 2.34124 704.755 1.81445 703.429 1.81445H661.571C660.245 1.81445 658.973 2.34124 658.036 3.27892L619.964 41.35C619.027 42.2877 617.755 42.8145 616.429 42.8145H401.571C400.245 42.8145 398.973 43.3412 398.036 44.2789L359.964 82.35C359.027 83.2877 357.755 83.8145 356.429 83.8145H305.571C304.245 83.8145 302.973 83.2877 302.036 82.35L263.964 44.2789C263.027 43.3412 261.755 42.8145 260.429 42.8145H7C4.23858 42.8145 2 45.053 2 47.8145L2 463" stroke="white" stroke-width="3"/>
</svg>
