<svg width="1399" height="250" viewBox="0 0 1399 250" fill="none" xmlns="http://www.w3.org/2000/svg">
<path d="M1397.5 0V121.743C1397.5 123.069 1396.97 124.341 1396.04 125.279L1316.46 204.85C1315.53 205.788 1314.26 206.314 1312.93 206.314H922.976C921.416 206.314 919.945 207.043 918.999 208.284L890.001 246.345C889.055 247.586 887.584 248.314 886.024 248.314H823.736C822.924 248.314 822.125 248.117 821.406 247.738L739.094 204.39C738.375 204.012 737.576 203.814 736.764 203.814H328H187.071C185.745 203.814 184.473 203.288 183.536 202.35L3.46447 22.2789C2.52679 21.3412 2 20.0695 2 18.7434V0" stroke="white" stroke-width="3"/>
<path d="M1363 107.314L1303 167.314H1313L1363 117.314V107.314Z" fill="white"/>
<rect width="4.77472" height="29" transform="matrix(0.707107 0.707107 0.707107 -0.707107 185.186 184.006)" fill="white"/>
<rect width="3.18315" height="29" transform="matrix(0.707107 0.707107 0.707107 -0.707107 179.559 178.378)" fill="white"/>
<rect width="3.18315" height="29" transform="matrix(0.707107 0.707107 0.707107 -0.707107 175.059 173.877)" fill="white"/>
<rect width="3.18315" height="29" transform="matrix(0.707107 0.707107 0.707107 -0.707107 169.43 168.25)" fill="white"/>
<rect width="1.59157" height="29" transform="matrix(0.707107 0.707107 0.707107 -0.707107 164.928 163.748)" fill="white"/>
<rect width="3.18315" height="29" transform="matrix(0.707107 0.707107 0.707107 -0.707107 160.426 159.246)" fill="white"/>
<rect width="3.18315" height="29" transform="matrix(0.707107 0.707107 0.707107 -0.707107 149.174 147.992)" fill="white"/>
<rect width="6.3663" height="29" transform="matrix(0.707107 0.707107 0.707107 -0.707107 153.674 152.495)" fill="white"/>
<rect width="3.18315" height="29" transform="matrix(0.707107 0.707107 0.707107 -0.707107 143.545 142.365)" fill="white"/>
<rect width="3.18315" height="29" transform="matrix(0.707107 0.707107 0.707107 -0.707107 133.416 132.236)" fill="white"/>
<rect width="4.77472" height="29" transform="matrix(0.707107 0.707107 0.707107 -0.707107 137.918 136.737)" fill="white"/>
<rect width="1.59157" height="29" transform="matrix(0.707107 0.707107 0.707107 -0.707107 130.041 128.86)" fill="white"/>
<rect width="4.77472" height="29" transform="matrix(0.707107 0.707107 0.707107 -0.707107 123.289 122.107)" fill="white"/>
<rect width="3.18315" height="29" transform="matrix(0.707107 0.707107 0.707107 -0.707107 117.662 116.481)" fill="white"/>
<rect width="3.18315" height="29" transform="matrix(0.707107 0.707107 0.707107 -0.707107 113.158 111.979)" fill="white"/>
<rect width="4.77472" height="29" transform="matrix(0.707107 0.707107 0.707107 -0.707107 106.406 105.227)" fill="white"/>
<rect width="4.77472" height="29" transform="matrix(0.707107 0.707107 0.707107 -0.707107 100.779 99.5996)" fill="white"/>
<rect width="3.18315" height="29" transform="matrix(0.707107 0.707107 0.707107 -0.707107 95.1523 93.9736)" fill="white"/>
<rect width="3.18315" height="29" transform="matrix(0.707107 0.707107 0.707107 -0.707107 90.6523 89.4707)" fill="white"/>
<rect width="3.18315" height="29" transform="matrix(0.707107 0.707107 0.707107 -0.707107 85.0234 83.8438)" fill="white"/>
<rect width="1.59157" height="29" transform="matrix(0.707107 0.707107 0.707107 -0.707107 80.5215 79.3428)" fill="white"/>
<rect width="3.18315" height="29" transform="matrix(0.707107 0.707107 0.707107 -0.707107 76.0195 74.8398)" fill="white"/>
<rect width="3.18315" height="29" transform="matrix(0.707107 0.707107 0.707107 -0.707107 64.7676 63.5859)" fill="white"/>
<rect width="6.3663" height="29" transform="matrix(0.707107 0.707107 0.707107 -0.707107 69.2676 68.0889)" fill="white"/>
<rect width="3.18315" height="29" transform="matrix(0.707107 0.707107 0.707107 -0.707107 59.1387 57.959)" fill="white"/>
<rect width="3.18315" height="29" transform="matrix(0.707107 0.707107 0.707107 -0.707107 49.0098 47.8301)" fill="white"/>
<rect width="4.77472" height="29" transform="matrix(0.707107 0.707107 0.707107 -0.707107 53.5117 52.333)" fill="white"/>
<rect width="1.59157" height="29" transform="matrix(0.707107 0.707107 0.707107 -0.707107 45.6348 44.4541)" fill="white"/>
<rect width="4.77472" height="29" transform="matrix(0.707107 0.707107 0.707107 -0.707107 38.8828 37.7021)" fill="white"/>
<rect width="3.18315" height="29" transform="matrix(0.707107 0.707107 0.707107 -0.707107 33.2559 32.0752)" fill="white"/>
<rect width="3.18315" height="29" transform="matrix(0.707107 0.707107 0.707107 -0.707107 28.752 27.5723)" fill="white"/>
<rect width="4.77472" height="29" transform="matrix(0.707107 0.707107 0.707107 -0.707107 22 20.8213)" fill="white"/>
</svg>
