<svg width="306" height="582" viewBox="0 0 306 582" fill="none" xmlns="http://www.w3.org/2000/svg">
<path d="M279 6L293 19L293 16.8333L281.333 6L279 6Z" fill="white"/>
<path d="M7.86319 195L7.86319 125.815C7.86319 125.549 7.75783 125.295 7.57029 125.107L1.29289 118.83C1.10535 118.643 0.999997 118.388 0.999997 118.123L0.999996 111.251C0.999996 110.986 1.10535 110.732 1.29289 110.544L7.57029 104.267C7.75783 104.079 7.86319 103.825 7.86319 103.56L7.86319 48.4824L7.86318 12.1272C7.86318 11.862 7.96854 11.6077 8.15608 11.4201L18.2836 1.29265C18.4711 1.10511 18.7255 0.999755 18.9907 0.999755L283.512 0.999744C283.777 0.999743 284.031 1.1051 284.219 1.29264L297.443 14.5169C297.631 14.7044 297.736 14.9588 297.736 15.224L297.736 74.5133C297.736 74.73 297.806 74.9408 297.937 75.114L304.566 83.9368C304.696 84.1101 304.767 84.3209 304.767 84.5376L304.767 94.9241C304.767 95.137 304.699 95.3444 304.573 95.516L297.512 105.133C297.386 105.304 297.318 105.512 297.318 105.724L297.318 195" stroke="white" stroke-width="0.6"/>
<path fill-rule="evenodd" clip-rule="evenodd" d="M8.1625 581.5V195H7.5625V581.5H8.1625ZM297.618 581.5V195H297.018L297.018 581.5H297.618Z" fill="white"/>
</svg>
