<svg width="64" height="64" viewBox="0 0 64 64" fill="none" xmlns="http://www.w3.org/2000/svg">
<path d="M47.227 26.6245H33.452V31.7656C33.452 35.4102 30.5248 38.3755 26.927 38.3755C23.3292 38.3755 20.402 35.4102 20.402 31.7656V20.6021L14.5205 24.1825C12.7714 25.2383 11.7021 27.157 11.7021 29.2134V33.5558L4.45206 37.7971C3.0655 38.605 2.58519 40.4044 3.39175 41.809L10.6417 54.5331C11.4392 55.9377 13.2155 56.4151 14.602 55.6072L23.9727 50.1265H36.352C39.5511 50.1265 42.152 47.4917 42.152 44.251H43.602C45.2061 44.251 46.502 42.9382 46.502 41.3132V35.4377H47.227C48.4323 35.4377 49.402 34.4554 49.402 33.2344V28.8278C49.402 27.6068 48.4323 26.6245 47.227 26.6245ZM60.6123 23.191L53.3623 10.4669C52.5648 9.06228 50.7885 8.58489 49.402 9.39277L40.0314 14.8735H30.7695C29.682 14.8735 28.6217 15.1856 27.6973 15.764L24.6614 17.6827C23.8095 18.2152 23.302 19.1608 23.302 20.1706V31.7656C23.302 33.7944 24.9242 35.4377 26.927 35.4377C28.9298 35.4377 30.552 33.7944 30.552 31.7656V23.6868H47.227C50.0273 23.6868 52.302 25.9911 52.302 28.8278V31.4442L59.552 27.2029C60.9385 26.3858 61.4098 24.5956 60.6123 23.191Z" fill="white"/>
</svg>
