<svg width="1445" height="764" viewBox="0 0 1445 764" fill="none" xmlns="http://www.w3.org/2000/svg">
<g filter="url(#filter0_bd_3554_176)">
<path d="M4 751V330.931C4 328.17 6.23857 325.931 8.99999 325.931H568.931C570.256 325.931 571.527 325.405 572.464 324.469L622.533 274.465C623.472 273.527 624 272.254 624 270.927V5C624 2.23858 626.239 0 629 0H1436C1438.76 0 1441 2.23857 1441 4.99999V588.956C1441 590.266 1440.49 591.524 1439.57 592.459L1280.47 754.503C1279.53 755.461 1278.24 756 1276.9 756H9C6.23858 756 4 753.761 4 751Z" fill="#3E3E3E" fill-opacity="0.8" shape-rendering="crispEdges"/>
</g>
<defs>
<filter id="filter0_bd_3554_176" x="-38" y="-42" width="1521" height="840" filterUnits="userSpaceOnUse" color-interpolation-filters="sRGB">
<feFlood flood-opacity="0" result="BackgroundImageFix"/>
<feGaussianBlur in="BackgroundImageFix" stdDeviation="21"/>
<feComposite in2="SourceAlpha" operator="in" result="effect1_backgroundBlur_3554_176"/>
<feColorMatrix in="SourceAlpha" type="matrix" values="0 0 0 0 0 0 0 0 0 0 0 0 0 0 0 0 0 0 127 0" result="hardAlpha"/>
<feOffset dy="4"/>
<feGaussianBlur stdDeviation="2"/>
<feComposite in2="hardAlpha" operator="out"/>
<feColorMatrix type="matrix" values="0 0 0 0 0 0 0 0 0 0 0 0 0 0 0 0 0 0 0.25 0"/>
<feBlend mode="normal" in2="effect1_backgroundBlur_3554_176" result="effect2_dropShadow_3554_176"/>
<feBlend mode="normal" in="SourceGraphic" in2="effect2_dropShadow_3554_176" result="shape"/>
</filter>
</defs>
</svg>
