<svg width="64" height="64" viewBox="0 0 64 64" fill="none" xmlns="http://www.w3.org/2000/svg">
<path d="M64 18.2891C58.6262 17.9935 53.295 19.3897 48.7566 22.2812C47.659 21.0317 46.531 19.7823 45.342 18.5938L44.4579 17.771L44.8847 17.4053C46.3756 16.1261 47.4381 14.4204 47.9287 12.5186C48.4194 10.6168 48.3146 8.61034 47.6285 6.76992C46.6375 4.69214 45.0641 2.94676 43.0995 1.7458C41.1349 0.544833 38.8637 -0.0600241 36.5618 0.00470078V6.09949C37.6465 6.0844 38.7156 6.35885 39.6588 6.89454C40.602 7.43022 41.3852 8.20774 41.9275 9.14689C42.4458 10.3658 41.9275 11.7067 40.4946 13.139L39.7934 13.7789C36.6134 11.1303 33.1223 8.87895 29.3974 7.07466C21.6842 3.60063 17.7209 5.21575 15.7697 7.07466C15.1752 7.67039 14.6993 8.3736 14.3673 9.14689L13.8186 10.762L9.42847 23.9877C12.904 32.6423 21.3184 48.0317 39.6105 54.675L54.8539 49.6163C55.368 49.425 55.8209 49.0986 56.1649 48.6716L56.8051 48.1231C61.1647 43.7348 58.3599 35.2935 52.5064 27.096C55.9821 25.0685 59.9841 24.1241 64 24.3839V18.2891ZM52.4455 43.7958H52.2625C50.159 44.9233 41.4397 42.0588 31.562 32.1852C30.5254 31.1491 29.5498 30.1434 28.6657 29.1378C28.3608 28.8026 28.0864 28.4369 27.7816 28.0712L26.1658 26.1209L25.3121 24.9324C24.8853 24.3534 24.4585 23.7744 24.0927 23.2259C23.7268 22.6773 23.6049 22.4335 23.361 22.0374C23.1171 21.6412 22.6903 21.0013 22.4159 20.4832C22.1415 19.9651 22.0196 19.7518 21.8366 19.3557C21.6537 18.9595 21.3184 18.5024 21.1354 18.0758C20.9525 17.6491 20.8611 17.3749 20.7086 17.0396C20.5562 16.7044 20.3733 16.2168 20.2513 15.8207C20.1294 15.4245 20.0989 15.2417 20.0379 14.9369C19.9769 14.6322 19.855 14.2056 19.794 13.9008C19.7794 13.6573 19.7794 13.413 19.794 13.1694C19.764 12.9062 19.764 12.6404 19.794 12.3771L20.1294 11.4324C20.6476 10.8839 22.9037 10.7315 26.9279 12.56C29.6173 13.8514 32.162 15.4246 34.5192 17.253C33.2341 17.8199 31.864 18.17 30.4644 18.2891V24.3839C33.7033 24.2002 36.8459 23.2159 39.6105 21.5193L41.1043 22.9211C42.4458 24.2315 43.6348 25.5419 44.7323 26.7913C42.8941 29.9244 42.1639 33.5846 42.6592 37.1829L48.7566 35.9944C48.5505 34.8456 48.5505 33.6693 48.7566 32.5204C52.6894 38.5238 53.421 42.8511 52.4455 43.7958ZM7.29439 30.4787L0.495816 50.8962C0.00512303 52.3952 -0.123714 53.9891 0.119837 55.5474C0.363389 57.1057 0.972414 58.5843 1.89713 59.8623C2.82184 61.1403 4.036 62.1814 5.44034 62.9006C6.84468 63.6197 8.39934 63.9965 9.97724 64C11.0145 63.9899 12.0436 63.815 13.0259 63.4819L32.9034 56.8691C21.6846 51.142 12.6794 41.862 7.29439 30.4787Z" fill="white"/>
</svg>
