<svg width="209" height="67" viewBox="0 0 209 67" fill="none" xmlns="http://www.w3.org/2000/svg">
<g filter="url(#filter0_d_3797_577)">
<rect x="4" y="4" width="201" height="59" rx="5" fill="url(#paint0_linear_3797_577)"/>
<rect x="4" y="4" width="201" height="59" rx="5" fill="url(#paint1_linear_3797_577)"/>
<path d="M75.8818 19.4511C75.8818 20.5801 75.5993 21.568 74.8928 22.2737C74.045 23.1204 73.056 23.5438 71.7844 23.5438C70.5127 23.5438 69.5237 23.1204 68.6759 22.2737C67.8282 21.4269 67.4043 20.439 67.4043 19.1689C67.4043 17.8987 67.8282 16.9109 68.6759 16.0641C69.5237 15.2174 70.5127 14.7939 71.7844 14.7939C72.3496 14.7939 72.9147 14.9351 73.4798 15.2174C74.045 15.4996 74.4689 15.7819 74.7515 16.2052L74.045 16.9108C73.4798 16.2052 72.7734 15.923 71.7844 15.923C70.9366 15.923 70.0888 16.2052 69.5237 16.9108C68.8172 17.4753 68.5347 18.3221 68.5347 19.31C68.5347 20.2979 68.8172 21.1446 69.5237 21.7092C70.2301 22.2737 70.9366 22.697 71.7844 22.697C72.7734 22.697 73.4798 22.4148 74.1864 21.7092C74.6102 21.2857 74.8928 20.7212 74.8928 20.0156H71.7844V19.0278H75.8818C75.8818 19.0278 75.8818 19.1689 75.8818 19.4511Z" fill="#151515" stroke="#151515" stroke-width="0.2" stroke-miterlimit="10"/>
<path d="M82.3808 15.923H78.5659V18.6044H82.0982V19.5923H78.5659V22.2737H82.3808V23.2615H77.4355V14.7939H82.3808V15.923Z" fill="#151515" stroke="#151515" stroke-width="0.2" stroke-miterlimit="10"/>
<path d="M87.0444 23.2615H85.9137V15.7819H83.5117V14.7939H89.4457V15.7819H87.0444V23.2615Z" fill="#151515" stroke="#151515" stroke-width="0.2" stroke-miterlimit="10"/>
<path d="M93.543 23.2615V14.7939H94.6727V23.2615H93.543Z" fill="#151515" stroke="#151515" stroke-width="0.2" stroke-miterlimit="10"/>
<path d="M99.4772 23.2615H98.3475V15.7819H95.9453V14.7939H101.738V15.7819H99.3361V23.2615H99.4772Z" fill="#151515" stroke="#151515" stroke-width="0.2" stroke-miterlimit="10"/>
<path d="M112.901 22.2737C112.053 23.1204 111.064 23.5438 109.792 23.5438C108.521 23.5438 107.532 23.1204 106.684 22.2737C105.836 21.4269 105.412 20.439 105.412 19.1689C105.412 17.8987 105.836 16.9109 106.684 16.0641C107.532 15.2174 108.521 14.7939 109.792 14.7939C111.064 14.7939 112.053 15.2174 112.901 16.0641C113.748 16.9109 114.172 17.8987 114.172 19.1689C114.172 20.2979 113.748 21.4269 112.901 22.2737ZM107.532 21.568C108.097 22.1326 108.945 22.5559 109.792 22.5559C110.641 22.5559 111.488 22.2737 112.053 21.568C112.619 21.0035 113.042 20.1568 113.042 19.1689C113.042 18.181 112.76 17.3342 112.053 16.7697C111.488 16.2052 110.641 15.7819 109.792 15.7819C108.945 15.7819 108.097 16.0641 107.532 16.7697C106.967 17.3342 106.543 18.181 106.543 19.1689C106.543 20.0156 106.826 20.8624 107.532 21.568Z" fill="#151515" stroke="#151515" stroke-width="0.2" stroke-miterlimit="10"/>
<path d="M115.727 23.2615V14.7939H116.998L121.095 21.4269V19.7334V14.7939H122.226V23.2615H121.095L116.715 16.3464V18.0398V23.2615H115.727Z" fill="#151515" stroke="#151515" stroke-width="0.2" stroke-miterlimit="10"/>
<path d="M105.129 35.6808C101.739 35.6808 99.0542 38.221 99.0542 41.7492C99.0542 45.1362 101.739 47.8176 105.129 47.8176C108.52 47.8176 111.205 45.2774 111.205 41.7492C111.205 38.221 108.52 35.6808 105.129 35.6808ZM105.129 45.2774C103.292 45.2774 101.739 43.725 101.739 41.6081C101.739 39.4912 103.292 37.9388 105.129 37.9388C106.966 37.9388 108.52 39.3501 108.52 41.6081C108.52 43.8661 106.966 45.2774 105.129 45.2774ZM91.9889 35.6808C88.5981 35.6808 85.9137 38.221 85.9137 41.7492C85.9137 45.1362 88.5981 47.8176 91.9889 47.8176C95.3805 47.8176 98.0648 45.2774 98.0648 41.7492C98.0648 38.221 95.3805 35.6808 91.9889 35.6808ZM91.9889 45.2774C90.1528 45.2774 88.5981 43.725 88.5981 41.6081C88.5981 39.4912 90.1528 37.9388 91.9889 37.9388C93.8258 37.9388 95.3805 39.3501 95.3805 41.6081C95.3805 43.8661 93.8258 45.2774 91.9889 45.2774ZM76.3058 37.5154V40.0557H82.3813C82.2401 41.467 81.6749 42.596 80.9684 43.3016C80.1207 44.1483 78.7077 45.1362 76.3058 45.1362C72.4909 45.1362 69.665 42.1726 69.665 38.3622C69.665 34.5518 72.6322 31.5881 76.3058 31.5881C78.2839 31.5881 79.8381 32.4349 80.9684 33.4228L82.8052 31.5881C81.251 30.1769 79.2729 29.0479 76.4471 29.0479C71.3605 29.0479 66.9805 33.2817 66.9805 38.3622C66.9805 43.4427 71.3605 47.6765 76.4471 47.6765C79.2729 47.6765 81.251 46.8298 82.9465 44.9951C84.6421 43.3016 85.2071 40.9024 85.2071 39.0679C85.2071 38.5033 85.2072 37.9388 85.0659 37.5154H76.3058ZM140.453 39.4912C139.888 38.0799 138.474 35.6808 135.366 35.6808C132.258 35.6808 129.715 38.0799 129.715 41.7492C129.715 45.1362 132.258 47.8176 135.649 47.8176C138.333 47.8176 140.029 46.1242 140.594 45.1362L138.616 43.725C137.91 44.7128 137.061 45.4185 135.649 45.4185C134.236 45.4185 133.388 44.854 132.681 43.5839L140.735 40.1968L140.453 39.4912ZM132.258 41.467C132.258 39.209 134.095 37.9388 135.366 37.9388C136.355 37.9388 137.344 38.5033 137.627 39.209L132.258 41.467ZM125.617 47.2531H128.301V29.6124H125.617V47.2531ZM121.378 36.9509C120.671 36.2453 119.541 35.5397 118.128 35.5397C115.161 35.5397 112.335 38.221 112.335 41.6081C112.335 44.9951 115.02 47.5354 118.128 47.5354C119.541 47.5354 120.671 46.8298 121.236 46.1242H121.378V46.9709C121.378 49.2289 120.107 50.499 118.128 50.499C116.574 50.499 115.444 49.3701 115.161 48.3821L112.9 49.3701C113.607 50.9224 115.302 52.8982 118.27 52.8982C121.378 52.8982 123.922 51.0635 123.922 46.6887V35.9631H121.378V36.9509ZM118.27 45.2774C116.433 45.2774 114.878 43.725 114.878 41.6081C114.878 39.4912 116.433 37.9388 118.27 37.9388C120.107 37.9388 121.519 39.4912 121.519 41.6081C121.519 43.725 120.107 45.2774 118.27 45.2774ZM152.745 29.6124H146.387V47.2531H149.071V40.6202H152.745C155.712 40.6202 158.538 38.5033 158.538 35.1163C158.538 31.7292 155.712 29.6124 152.745 29.6124ZM152.886 38.221H149.071V32.1526H152.886C154.864 32.1526 155.995 33.8462 155.995 35.1163C155.854 36.5276 154.723 38.221 152.886 38.221ZM169.135 35.6808C167.156 35.6808 165.178 36.5276 164.472 38.3622L166.874 39.3501C167.439 38.3622 168.287 38.0799 169.276 38.0799C170.689 38.0799 171.961 38.9267 172.102 40.338V40.4791C171.678 40.1968 170.548 39.7735 169.417 39.7735C166.874 39.7735 164.331 41.1847 164.331 43.725C164.331 46.1242 166.45 47.6765 168.711 47.6765C170.548 47.6765 171.395 46.8298 172.102 45.9831H172.243V47.3943H174.786V40.6202C174.504 37.3743 172.102 35.6808 169.135 35.6808ZM168.852 45.2774C168.005 45.2774 166.733 44.854 166.733 43.725C166.733 42.3138 168.287 41.8903 169.558 41.8903C170.689 41.8903 171.254 42.1726 171.961 42.4549C171.678 44.1484 170.265 45.2774 168.852 45.2774ZM183.688 35.9631L180.721 43.5839H180.58L177.471 35.9631H174.645L179.308 46.6887L176.623 52.616H179.308L186.514 35.9631H183.688ZM159.951 47.2531H162.635V29.6124H159.951V47.2531Z" fill="#151515"/>
<path d="M22.8966 50.7816C22.3314 50.4994 22.0488 49.7937 22.0488 49.0881C22.0488 48.9469 22.0488 48.6647 22.0488 48.5236C22.0488 38.0803 22.0488 27.6369 22.0488 17.3346C22.0488 16.7701 22.1901 16.3468 22.3314 15.7823C22.4727 15.5 22.7553 15.2178 23.0379 14.9355C29.1134 21.0039 35.0477 27.0723 40.982 33.1408C34.9064 38.7858 28.9722 44.7132 22.8966 50.7816Z" fill="#151515"/>
<path d="M46.916 26.9303C45.2205 28.6239 43.3837 30.3173 41.6882 32.152C36.0365 26.3658 30.2435 20.5796 24.5918 14.7935C24.5918 14.7935 24.5918 14.6523 24.7331 14.6523C32.0803 18.745 39.4275 22.8377 46.916 26.9303Z" fill="#151515"/>
<path d="M24.5918 50.7808C30.2435 45.1358 36.0365 39.4908 41.6882 33.8457C43.2424 35.3981 44.9379 36.9505 46.7747 38.644C39.4275 42.7367 32.0803 46.8293 24.7331 50.7808H24.5918Z" fill="#151515"/>
<path d="M47.7636 38.0796C45.9268 36.3861 44.2313 34.6925 42.3945 32.9991C44.2313 31.1644 46.0682 29.3298 47.9049 27.4951C48.4701 27.7773 49.0352 28.0596 49.6004 28.483C51.0133 29.3298 52.5676 30.0354 53.9805 30.8821C54.4044 31.0232 54.687 31.3055 54.9695 31.7289C55.5347 32.4345 55.5347 33.1402 54.9695 33.8458C54.687 34.128 54.4044 34.4103 53.9805 34.5514C52.0024 35.8216 49.8831 36.9506 47.7636 38.0796Z" fill="#151515"/>
</g>
<defs>
<filter id="filter0_d_3797_577" x="0.4" y="0.4" width="208.2" height="66.2" filterUnits="userSpaceOnUse" color-interpolation-filters="sRGB">
<feFlood flood-opacity="0" result="BackgroundImageFix"/>
<feColorMatrix in="SourceAlpha" type="matrix" values="0 0 0 0 0 0 0 0 0 0 0 0 0 0 0 0 0 0 127 0" result="hardAlpha"/>
<feOffset/>
<feGaussianBlur stdDeviation="1.8"/>
<feComposite in2="hardAlpha" operator="out"/>
<feColorMatrix type="matrix" values="0 0 0 0 0.956863 0 0 0 0 0.827451 0 0 0 0 0.384314 0 0 0 1 0"/>
<feBlend mode="normal" in2="BackgroundImageFix" result="effect1_dropShadow_3797_577"/>
<feBlend mode="normal" in="SourceGraphic" in2="effect1_dropShadow_3797_577" result="shape"/>
</filter>
<linearGradient id="paint0_linear_3797_577" x1="9.025" y1="5.22917" x2="36.0535" y2="107.309" gradientUnits="userSpaceOnUse">
<stop stop-color="#7A96AC"/>
<stop offset="0.18" stop-color="#EAEFF3"/>
<stop offset="0.315" stop-color="#C2D4E1"/>
<stop offset="0.491919" stop-color="white"/>
<stop offset="0.615" stop-color="#D4DEE5"/>
<stop offset="0.785" stop-color="#ABBDC8"/>
<stop offset="0.955" stop-color="#BCCAD7"/>
</linearGradient>
<linearGradient id="paint1_linear_3797_577" x1="-21.6085" y1="77.3803" x2="219.029" y2="99.2538" gradientUnits="userSpaceOnUse">
<stop stop-color="#A5782B"/>
<stop offset="0.354167" stop-color="#F4D362"/>
<stop offset="0.90625" stop-color="#E3C56D"/>
</linearGradient>
</defs>
</svg>
