<svg width="209" height="67" viewBox="0 0 209 67" fill="none" xmlns="http://www.w3.org/2000/svg">
<g filter="url(#filter0_d_3797_591)">
<rect x="4" y="4" width="201" height="59" rx="5" fill="url(#paint0_linear_3797_591)"/>
<rect x="4" y="4" width="201" height="59" rx="5" fill="url(#paint1_linear_3797_591)"/>
<rect x="4" y="4" width="201" height="59" rx="5" fill="url(#paint2_linear_3797_591)"/>
<rect x="4" y="4" width="201" height="59" rx="5" fill="url(#paint3_linear_3797_591)"/>
<path d="M51.423 32.1209C51.385 27.5835 55.1439 25.3718 55.3189 25.273C53.1883 22.172 49.8859 21.7464 48.7217 21.716C45.9444 21.4272 43.2583 23.3729 41.843 23.3729C40.4048 23.3729 38.2285 21.7464 35.8773 21.7921C32.8564 21.8376 30.0334 23.5857 28.4887 26.2915C25.2928 31.8169 27.6745 39.934 30.741 44.403C32.2704 46.5919 34.0587 49.0316 36.4024 48.9479C38.6927 48.8567 39.5526 47.4887 42.3147 47.4887C45.054 47.4887 45.8606 48.9479 48.2499 48.8948C50.7077 48.8567 52.26 46.6982 53.7362 44.4942C55.5092 41.9861 56.2168 39.516 56.2473 39.3944C56.1864 39.3564 51.4687 37.5551 51.423 32.1209ZM46.9107 18.7747C48.1434 17.2318 48.988 15.1418 48.7521 13.0137C46.9716 13.0896 44.7344 14.2449 43.4561 15.7498C42.3223 17.0798 41.3026 19.2535 41.569 21.298C43.5626 21.4424 45.6247 20.2871 46.9107 18.7747Z" fill="#151515"/>
<path d="M84.6157 48.6214H81.4122L79.6545 43.1188H73.5594L71.8854 48.6214H68.7656L74.8074 29.879H78.5359L84.6157 48.6214ZM79.1294 40.8083L77.5391 35.9137C77.3717 35.4121 77.0521 34.234 76.5955 32.3795H76.5423C76.3597 33.1776 76.0553 34.3556 75.652 35.9137L74.0921 40.8083H79.1294ZM100.124 41.6975C100.124 43.9929 99.4994 45.8093 98.2516 47.147C97.1326 48.3326 95.7403 48.9254 94.0815 48.9254C92.2856 48.9254 91 48.287 90.2165 47.0101V54.1013H87.2105V39.5466C87.2105 38.1026 87.1728 36.6205 87.0965 35.108H89.744L89.9121 37.2514H89.9646C90.9696 35.6401 92.4915 34.8268 94.5302 34.8268C96.1284 34.8268 97.4599 35.4577 98.5256 36.7193C99.5905 37.981 100.124 39.6455 100.124 41.6975ZM97.0645 41.8115C97.0645 40.4967 96.7675 39.4099 96.1743 38.5586C95.527 37.6694 94.6525 37.2285 93.5564 37.2285C92.8188 37.2285 92.1412 37.4793 91.5398 37.9658C90.9393 38.4598 90.543 39.1059 90.3609 39.8962C90.2772 40.1927 90.2313 40.5042 90.2239 40.8083V43.0656C90.2239 44.046 90.5283 44.8744 91.1296 45.5585C91.7302 46.2349 92.5145 46.5769 93.4801 46.5769C94.6139 46.5769 95.4967 46.1361 96.1284 45.2697C96.7445 44.3881 97.0645 43.2404 97.0645 41.8115ZM115.692 41.6975C115.692 43.9929 115.068 45.8093 113.82 47.147C112.701 48.3326 111.309 48.9254 109.65 48.9254C107.854 48.9254 106.568 48.287 105.785 47.0101V54.1013H102.779V39.5466C102.779 38.1026 102.741 36.6205 102.665 35.108H105.313L105.48 37.2514H105.534C106.538 35.6401 108.06 34.8268 110.099 34.8268C111.697 34.8268 113.029 35.4577 114.094 36.7193C115.152 37.981 115.692 39.6455 115.692 41.6975ZM112.625 41.8115C112.625 40.4967 112.329 39.4099 111.735 38.5586C111.089 37.6694 110.213 37.2285 109.118 37.2285C108.38 37.2285 107.702 37.4793 107.093 37.9658C106.493 38.4598 106.096 39.1059 105.914 39.8962C105.822 40.2687 105.77 40.5727 105.77 40.8083V43.0656C105.77 44.046 106.074 44.8744 106.675 45.5585C107.276 46.2349 108.06 46.5769 109.034 46.5769C110.167 46.5769 111.05 46.1361 111.682 45.2697C112.313 44.3881 112.625 43.2404 112.625 41.8115ZM133.094 43.3696C133.094 44.9657 132.539 46.2653 131.428 47.261C130.211 48.3554 128.498 48.9026 126.314 48.9026C124.298 48.9026 122.678 48.5151 121.452 47.7322L122.144 45.2317C123.461 46.0145 124.914 46.4021 126.489 46.4021C127.623 46.4021 128.506 46.1437 129.137 45.6345C129.769 45.1253 130.088 44.4413 130.088 43.59C130.088 42.83 129.823 42.1916 129.305 41.6671C128.787 41.1503 127.927 40.6639 126.718 40.2231C123.431 38.9994 121.787 37.2057 121.787 34.8573C121.787 33.322 122.365 32.0604 123.529 31.0799C124.686 30.0994 126.223 29.6055 128.141 29.6055C129.846 29.6055 131.268 29.9019 132.402 30.4946L131.649 32.942C130.583 32.3644 129.389 32.0831 128.041 32.0831C126.984 32.0831 126.147 32.3415 125.553 32.8583C125.051 33.322 124.8 33.8844 124.8 34.5533C124.8 35.2904 125.09 35.9061 125.668 36.3849C126.17 36.8258 127.075 37.3122 128.392 37.829C130.005 38.4826 131.192 39.235 131.953 40.1091C132.714 40.9831 133.094 42.07 133.094 43.3696ZM143.062 37.3654H139.745V43.9244C139.745 45.5965 140.33 46.4249 141.503 46.4249C142.043 46.4249 142.484 46.3793 142.842 46.2881L142.925 48.5682C142.332 48.7887 141.556 48.9026 140.59 48.9026C139.402 48.9026 138.474 48.5378 137.804 47.8158C137.135 47.0937 136.8 45.8777 136.8 44.1753V37.3654H134.829V35.1157H136.8V32.638L139.753 31.7487V35.1157H143.07L143.062 37.3654ZM157.984 41.7583C157.984 43.8332 157.391 45.5433 156.204 46.8734C154.963 48.249 153.312 48.9331 151.25 48.9331C149.264 48.9331 147.681 48.2718 146.501 46.9646C145.323 45.6497 144.737 43.9852 144.737 41.9864C144.737 39.8887 145.345 38.1786 146.563 36.8409C147.78 35.5033 149.416 34.842 151.478 34.842C153.464 34.842 155.062 35.5033 156.264 36.8181C157.405 38.0874 157.984 39.7367 157.984 41.7583ZM154.865 41.8267C154.865 40.5879 154.598 39.5239 154.057 38.6422C153.426 37.5706 152.528 37.0309 151.357 37.0309C150.154 37.0309 149.226 37.5706 148.602 38.6422C148.062 39.5314 147.795 40.6107 147.795 41.8875C147.795 43.1264 148.062 44.1904 148.602 45.0797C149.249 46.1513 150.162 46.691 151.334 46.691C152.483 46.691 153.381 46.1437 154.035 45.0569C154.591 44.1372 154.865 43.0656 154.865 41.8267ZM167.762 37.753C167.45 37.6998 167.131 37.6694 166.811 37.6694C165.753 37.6694 164.939 38.0646 164.361 38.8627C163.859 39.5694 163.608 40.4587 163.608 41.5304V48.6214H160.602V39.3642C160.602 37.943 160.579 36.5293 160.518 35.108H163.136L163.242 37.6922H163.326C163.646 36.8029 164.14 36.0885 164.833 35.5489C165.456 35.0776 166.225 34.8268 167.008 34.8268C167.291 34.8268 167.533 34.8497 167.762 34.8801V37.753ZM181.208 41.2263C181.215 41.6824 181.177 42.1384 181.101 42.5868H172.077C172.107 43.9244 172.549 44.9428 173.385 45.6497C174.146 46.2805 175.128 46.5921 176.338 46.5921C177.677 46.5921 178.894 46.3793 179.99 45.9537L180.462 48.0362C179.183 48.591 177.67 48.8722 175.927 48.8722C173.827 48.8722 172.183 48.2566 170.981 47.0254C169.786 45.7941 169.185 44.1372 169.185 42.0623C169.185 40.0254 169.74 38.3306 170.859 36.9778C172.024 35.5337 173.606 34.8116 175.592 34.8116C177.54 34.8116 179.016 35.5337 180.021 36.9778C180.804 38.1254 181.208 39.539 181.208 41.2263ZM178.339 40.4511C178.362 39.5619 178.164 38.7942 177.753 38.1406C177.236 37.3046 176.429 36.8866 175.356 36.8866C174.375 36.8866 173.576 37.2969 172.959 38.1102C172.457 38.7562 172.161 39.539 172.069 40.4435L178.339 40.4511Z" fill="#151515"/>
<path d="M72.6923 23.2594C71.8553 23.2594 71.1324 23.2214 70.5312 23.153V14.0858C71.3759 13.9566 72.2282 13.8882 73.0804 13.8958C76.5274 13.8958 78.1177 15.5907 78.1177 18.3496C78.1101 21.5341 76.2383 23.2594 72.6923 23.2594ZM73.2021 15.0587C72.738 15.0587 72.3423 15.0891 72.0151 15.1574V22.0434C72.1901 22.0738 72.5326 22.0813 73.0119 22.0813C75.2718 22.0813 76.5578 20.7969 76.5578 18.3952C76.5502 16.2443 75.386 15.0587 73.2021 15.0587ZM83.0637 23.3278C81.1234 23.3278 79.8602 21.8761 79.8602 19.9077C79.8602 17.8555 81.1462 16.3963 83.1703 16.3963C85.0878 16.3963 86.374 17.7796 86.374 19.8012C86.374 21.8761 85.0498 23.3278 83.0637 23.3278ZM83.117 17.4756C82.0517 17.4756 81.3669 18.4712 81.3669 19.8696C81.3669 21.2377 82.0669 22.2333 83.1018 22.2333C84.1443 22.2333 84.8367 21.1693 84.8367 19.8392C84.8443 18.4864 84.1595 17.4756 83.117 17.4756ZM97.4528 16.5331L95.3755 23.1758H94.021L93.1612 20.2953C92.9479 19.5884 92.7658 18.874 92.6288 18.152H92.5984C92.4918 18.874 92.2859 19.6037 92.0652 20.2953L91.152 23.1758H89.7828L87.8269 16.5331H89.3488L90.1019 19.6872C90.2775 20.4396 90.4293 21.1465 90.5515 21.823H90.5819C90.6885 21.2605 90.8706 20.5689 91.1299 19.7025L92.0734 16.5331H93.2753L94.181 19.6341C94.4017 20.3865 94.5764 21.1237 94.7134 21.823H94.7512C94.8504 21.1389 94.9948 20.4169 95.2008 19.6341L96.0072 16.5331H97.4528ZM105.115 23.1758H103.639V19.3604C103.639 18.1824 103.19 17.5972 102.3 17.5972C101.425 17.5972 100.824 18.3496 100.824 19.2236V23.1758H99.3479V18.4332C99.3479 17.848 99.3323 17.2172 99.2946 16.5331H100.596L100.664 17.5591H100.702C101.098 16.8524 101.904 16.3963 102.81 16.3963C104.202 16.3963 105.123 17.4604 105.123 19.2008L105.115 23.1758ZM109.186 23.1758H107.71V13.4854H109.186V23.1758ZM114.581 23.3278C112.641 23.3278 111.378 21.8761 111.378 19.9077C111.378 17.8555 112.664 16.3963 114.688 16.3963C116.605 16.3963 117.892 17.7796 117.892 19.8012C117.892 21.8761 116.56 23.3278 114.581 23.3278ZM114.635 17.4756C113.569 17.4756 112.885 18.4712 112.885 19.8696C112.885 21.2377 113.584 22.2333 114.619 22.2333C115.662 22.2333 116.354 21.1693 116.354 19.8392C116.354 18.4864 115.677 17.4756 114.635 17.4756ZM123.72 23.1758L123.613 22.4081H123.575C123.127 23.0238 122.465 23.3202 121.628 23.3202C120.432 23.3202 119.588 22.4842 119.588 21.3669C119.588 19.7253 121.011 18.8816 123.476 18.8816V18.76C123.476 17.8859 123.013 17.4452 122.099 17.4452C121.445 17.4452 120.866 17.6124 120.364 17.9392L120.067 16.9664C120.684 16.5863 121.452 16.3887 122.351 16.3887C124.085 16.3887 124.968 17.3008 124.968 19.1324V21.5797C124.968 22.2486 124.998 22.7729 125.067 23.1682L123.72 23.1758ZM123.515 19.8696C121.871 19.8696 121.049 20.2649 121.049 21.2073C121.049 21.9065 121.475 22.2486 122.061 22.2486C122.815 22.2486 123.515 21.6785 123.515 20.8957V19.8696ZM132.128 23.1758L132.06 22.1117H132.021C131.596 22.9174 130.88 23.3278 129.884 23.3278C128.278 23.3278 127.091 21.9218 127.091 19.9381C127.091 17.8632 128.324 16.3963 130.005 16.3963C130.896 16.3963 131.527 16.6927 131.877 17.3008H131.907V13.4854H133.383V21.3821C133.383 22.0205 133.399 22.6285 133.437 23.1682H132.128V23.1758ZM131.915 19.2692C131.915 18.342 131.299 17.544 130.355 17.544C129.259 17.544 128.59 18.5168 128.59 19.8773C128.59 21.2149 129.282 22.1346 130.325 22.1346C131.253 22.1346 131.915 21.3289 131.915 20.3713V19.2692ZM142.774 23.3278C140.834 23.3278 139.57 21.8761 139.57 19.9077C139.57 17.8555 140.856 16.3963 142.88 16.3963C144.798 16.3963 146.083 17.7796 146.083 19.8012C146.083 21.8761 144.76 23.3278 142.774 23.3278ZM142.827 17.4756C141.761 17.4756 141.076 18.4712 141.076 19.8696C141.076 21.2377 141.777 22.2333 142.812 22.2333C143.854 22.2333 144.547 21.1693 144.547 19.8392C144.554 18.4864 143.869 17.4756 142.827 17.4756ZM154.036 23.1758H152.559V19.3604C152.559 18.1824 152.11 17.5972 151.22 17.5972C150.344 17.5972 149.744 18.3496 149.744 19.2236V23.1758H148.267V18.4332C148.267 17.848 148.252 17.2172 148.214 16.5331H149.515L149.584 17.5591H149.622C150.018 16.8524 150.824 16.3963 151.729 16.3963C153.122 16.3963 154.043 17.4604 154.043 19.2008V23.1758H154.036ZM163.973 17.6427H162.345V20.8653C162.345 21.6861 162.626 22.0966 163.204 22.0966C163.463 22.0966 163.684 22.0662 163.859 22.0281L163.897 23.1454C163.608 23.2518 163.227 23.3126 162.748 23.3126C161.583 23.3126 160.883 22.6742 160.883 20.9869V17.6352H159.91V16.5255H160.883V15.3094L162.337 14.8687V16.5255H163.966L163.973 17.6427ZM171.803 23.1758H170.326V19.3908C170.326 18.2052 169.878 17.6048 168.987 17.6048C168.219 17.6048 167.512 18.1216 167.512 19.178V23.1834H166.035V13.4854H167.512V17.4756H167.542C168.006 16.7535 168.683 16.3963 169.543 16.3963C170.951 16.3963 171.81 17.4907 171.81 19.2236L171.803 23.1758ZM179.815 20.2117H175.379C175.41 21.4658 176.239 22.1801 177.472 22.1801C178.126 22.1801 178.735 22.0738 179.267 21.8685L179.496 22.8945C178.864 23.1682 178.126 23.305 177.266 23.305C175.189 23.305 173.957 21.9901 173.957 19.9608C173.957 17.924 175.219 16.3963 177.099 16.3963C178.795 16.3963 179.861 17.6503 179.861 19.5505C179.876 19.7633 179.861 19.9912 179.815 20.2117ZM178.461 19.1553C178.461 18.1291 177.944 17.4071 177 17.4071C176.148 17.4071 175.479 18.1444 175.387 19.1553H178.461Z" fill="#151515"/>
</g>
<defs>
<filter id="filter0_d_3797_591" x="0.4" y="0.4" width="208.2" height="66.2" filterUnits="userSpaceOnUse" color-interpolation-filters="sRGB">
<feFlood flood-opacity="0" result="BackgroundImageFix"/>
<feColorMatrix in="SourceAlpha" type="matrix" values="0 0 0 0 0 0 0 0 0 0 0 0 0 0 0 0 0 0 127 0" result="hardAlpha"/>
<feOffset/>
<feGaussianBlur stdDeviation="1.8"/>
<feComposite in2="hardAlpha" operator="out"/>
<feColorMatrix type="matrix" values="0 0 0 0 0.956863 0 0 0 0 0.827451 0 0 0 0 0.384314 0 0 0 1 0"/>
<feBlend mode="normal" in2="BackgroundImageFix" result="effect1_dropShadow_3797_591"/>
<feBlend mode="normal" in="SourceGraphic" in2="effect1_dropShadow_3797_591" result="shape"/>
</filter>
<linearGradient id="paint0_linear_3797_591" x1="9.025" y1="5.22917" x2="36.0535" y2="107.309" gradientUnits="userSpaceOnUse">
<stop stop-color="#7A96AC"/>
<stop offset="0.18" stop-color="#EAEFF3"/>
<stop offset="0.315" stop-color="#C2D4E1"/>
<stop offset="0.491919" stop-color="white"/>
<stop offset="0.615" stop-color="#D4DEE5"/>
<stop offset="0.785" stop-color="#ABBDC8"/>
<stop offset="0.955" stop-color="#BCCAD7"/>
</linearGradient>
<linearGradient id="paint1_linear_3797_591" x1="30.8" y1="14.325" x2="53.0352" y2="90.972" gradientUnits="userSpaceOnUse">
<stop stop-color="#8C421D"/>
<stop offset="0.325272" stop-color="#FBE67B"/>
<stop offset="0.535488" stop-color="#FCFBE7"/>
<stop offset="0.769917" stop-color="#F7D14E"/>
<stop offset="1" stop-color="#D4A041"/>
</linearGradient>
<linearGradient id="paint2_linear_3797_591" x1="9.025" y1="5.22917" x2="36.0535" y2="107.309" gradientUnits="userSpaceOnUse">
<stop stop-color="#7A96AC"/>
<stop offset="0.18" stop-color="#EAEFF3"/>
<stop offset="0.315" stop-color="#C2D4E1"/>
<stop offset="0.491919" stop-color="white"/>
<stop offset="0.615" stop-color="#D4DEE5"/>
<stop offset="0.785" stop-color="#ABBDC8"/>
<stop offset="0.955" stop-color="#BCCAD7"/>
</linearGradient>
<linearGradient id="paint3_linear_3797_591" x1="-21.6085" y1="77.3803" x2="219.029" y2="99.2538" gradientUnits="userSpaceOnUse">
<stop stop-color="#A5782B"/>
<stop offset="0.354167" stop-color="#F4D362"/>
<stop offset="0.90625" stop-color="#E3C56D"/>
</linearGradient>
</defs>
</svg>
