<svg width="125" height="42" viewBox="0 0 125 42" fill="none" xmlns="http://www.w3.org/2000/svg">
<path d="M8.947 35.299C6.647 35.299 4.70733 34.563 3.128 33.091C1.564 31.619 0.782 29.7023 0.782 27.341C0.782 24.9643 1.564 23.0477 3.128 21.591C4.70733 20.1343 6.647 19.406 8.947 19.406C11.7377 19.406 13.8537 20.5483 15.295 22.833L12.581 24.305C12.213 23.7223 11.707 23.247 11.063 22.879C10.4343 22.4957 9.729 22.304 8.947 22.304C7.55167 22.304 6.40167 22.7793 5.497 23.73C4.59233 24.6807 4.14 25.8843 4.14 27.341C4.14 28.7977 4.59233 30.0013 5.497 30.952C6.40167 31.9027 7.55167 32.378 8.947 32.378C9.591 32.378 10.212 32.263 10.81 32.033C11.408 31.803 11.8757 31.527 12.213 31.205V29.365H8.165V26.513H15.479V32.401C13.7463 34.333 11.569 35.299 8.947 35.299ZM27.3327 33.597C26.2594 34.7163 24.8334 35.276 23.0547 35.276C21.276 35.276 19.85 34.7163 18.7767 33.597C17.7187 32.4623 17.1897 31.0747 17.1897 29.434C17.1897 27.7933 17.7187 26.4133 18.7767 25.294C19.85 24.1747 21.276 23.615 23.0547 23.615C24.8334 23.615 26.2594 24.1747 27.3327 25.294C28.406 26.4133 28.9427 27.7933 28.9427 29.434C28.9427 31.0747 28.406 32.4623 27.3327 33.597ZM20.9847 31.757C21.4907 32.3703 22.1807 32.677 23.0547 32.677C23.9287 32.677 24.6187 32.3703 25.1247 31.757C25.646 31.1283 25.9067 30.354 25.9067 29.434C25.9067 28.5293 25.646 27.7703 25.1247 27.157C24.6187 26.5283 23.9287 26.214 23.0547 26.214C22.1807 26.214 21.4907 26.5283 20.9847 27.157C20.4787 27.7703 20.2257 28.5293 20.2257 29.434C20.2257 30.354 20.4787 31.1283 20.9847 31.757ZM40.4397 33.597C39.3664 34.7163 37.9404 35.276 36.1617 35.276C34.3831 35.276 32.9571 34.7163 31.8837 33.597C30.8257 32.4623 30.2967 31.0747 30.2967 29.434C30.2967 27.7933 30.8257 26.4133 31.8837 25.294C32.9571 24.1747 34.3831 23.615 36.1617 23.615C37.9404 23.615 39.3664 24.1747 40.4397 25.294C41.5131 26.4133 42.0497 27.7933 42.0497 29.434C42.0497 31.0747 41.5131 32.4623 40.4397 33.597ZM34.0917 31.757C34.5977 32.3703 35.2877 32.677 36.1617 32.677C37.0357 32.677 37.7257 32.3703 38.2317 31.757C38.7531 31.1283 39.0137 30.354 39.0137 29.434C39.0137 28.5293 38.7531 27.7703 38.2317 27.157C37.7257 26.5283 37.0357 26.214 36.1617 26.214C35.2877 26.214 34.5977 26.5283 34.0917 27.157C33.5857 27.7703 33.3327 28.5293 33.3327 29.434C33.3327 30.354 33.5857 31.1283 34.0917 31.757ZM48.6708 39.508C46.7541 39.508 45.1594 38.956 43.8868 37.852L45.1978 35.736C46.0258 36.656 47.1834 37.116 48.6708 37.116C49.4988 37.116 50.2118 36.8937 50.8098 36.449C51.4231 36.0197 51.7298 35.3067 51.7298 34.31V33.183C50.8098 34.3483 49.6674 34.931 48.3028 34.931C46.8614 34.931 45.6808 34.4403 44.7608 33.459C43.8561 32.4623 43.4038 31.067 43.4038 29.273C43.4038 27.4943 43.8561 26.1067 44.7608 25.11C45.6808 24.1133 46.8614 23.615 48.3028 23.615C49.6828 23.615 50.8251 24.1823 51.7298 25.317V23.891H54.6738V34.241C54.6738 35.253 54.4898 36.1193 54.1218 36.84C53.7691 37.5607 53.2861 38.105 52.6728 38.473C52.0594 38.841 51.4231 39.1017 50.7638 39.255C50.1198 39.4237 49.4221 39.508 48.6708 39.508ZM49.2228 32.332C49.6981 32.332 50.1734 32.2093 50.6488 31.964C51.1241 31.7187 51.4844 31.4197 51.7298 31.067V27.479C51.4844 27.111 51.1241 26.812 50.6488 26.582C50.1888 26.3367 49.7134 26.214 49.2228 26.214C48.3794 26.214 47.6971 26.49 47.1758 27.042C46.6698 27.594 46.4168 28.3377 46.4168 29.273C46.4168 30.2083 46.6698 30.952 47.1758 31.504C47.6971 32.056 48.3794 32.332 49.2228 32.332ZM60.3919 35H57.4709V19.659H60.3919V35ZM68.4093 35.276C66.6919 35.276 65.2736 34.7393 64.1543 33.666C63.0349 32.5927 62.4753 31.182 62.4753 29.434C62.4753 27.7933 63.0119 26.4133 64.0853 25.294C65.1739 24.1747 66.5539 23.615 68.2253 23.615C69.8813 23.615 71.2229 24.1823 72.2503 25.317C73.2776 26.4363 73.7913 27.9083 73.7913 29.733V30.377H65.5343C65.6263 31.113 65.9559 31.7263 66.5233 32.217C67.0906 32.7077 67.8266 32.953 68.7313 32.953C69.2219 32.953 69.7509 32.8533 70.3183 32.654C70.9009 32.4547 71.3609 32.1863 71.6983 31.849L72.9863 33.735C71.8669 34.7623 70.3413 35.276 68.4093 35.276ZM70.9623 28.399C70.9163 27.7703 70.6633 27.203 70.2033 26.697C69.7586 26.191 69.0993 25.938 68.2253 25.938C67.3973 25.938 66.7533 26.191 66.2933 26.697C65.8333 27.1877 65.5649 27.755 65.4883 28.399H70.9623ZM84.9209 35H81.6549V19.659H88.8309C90.4409 19.659 91.6983 20.1343 92.6029 21.085C93.5229 22.0203 93.9829 23.1933 93.9829 24.604C93.9829 25.9993 93.5229 27.1723 92.6029 28.123C91.6829 29.0737 90.4256 29.549 88.8309 29.549H84.9209V35ZM88.3939 26.674C89.0533 26.674 89.5899 26.49 90.0039 26.122C90.4333 25.7387 90.6479 25.2327 90.6479 24.604C90.6479 23.9753 90.4333 23.477 90.0039 23.109C89.5899 22.7257 89.0533 22.534 88.3939 22.534H84.9209V26.674H88.3939ZM98.7595 35H95.8385V19.659H98.7595V35ZM111.147 35H108.226V33.85C107.429 34.8007 106.256 35.276 104.707 35.276C103.71 35.276 102.813 34.954 102.016 34.31C101.234 33.6507 100.843 32.746 100.843 31.596C100.843 30.4 101.226 29.503 101.993 28.905C102.775 28.307 103.68 28.008 104.707 28.008C106.286 28.008 107.459 28.4603 108.226 29.365V27.87C108.226 27.3027 108.004 26.8503 107.559 26.513C107.114 26.1757 106.524 26.007 105.788 26.007C104.577 26.007 103.496 26.444 102.545 27.318L101.441 25.363C102.76 24.1977 104.377 23.615 106.294 23.615C107.72 23.615 108.885 23.9447 109.79 24.604C110.695 25.2633 111.147 26.3367 111.147 27.824V35ZM105.88 33.298C106.969 33.298 107.751 32.976 108.226 32.332V30.952C107.751 30.308 106.969 29.986 105.88 29.986C105.282 29.986 104.784 30.1393 104.385 30.446C103.986 30.7373 103.787 31.1437 103.787 31.665C103.787 32.171 103.986 32.5697 104.385 32.861C104.784 33.1523 105.282 33.298 105.88 33.298ZM113.553 39.347L113.99 36.725C114.266 36.8477 114.573 36.909 114.91 36.909C115.692 36.909 116.206 36.6407 116.451 36.104L116.865 35.161L112.357 23.891H115.485L118.383 31.619L121.281 23.891H124.432L119.211 36.817C118.828 37.7983 118.291 38.4807 117.601 38.864C116.911 39.2627 116.045 39.4773 115.002 39.508C114.465 39.508 113.982 39.4543 113.553 39.347Z" fill="black"/>
<path d="M9 6.836V7.34C9 8.436 8.624 9.348 7.872 10.076C7.12 10.796 6.124 11.156 4.884 11.156C3.604 11.156 2.544 10.736 1.704 9.896C0.872 9.048 0.456 8.016 0.456 6.8C0.456 5.584 0.872 4.556 1.704 3.716C2.544 2.868 3.596 2.444 4.86 2.444C5.636 2.444 6.348 2.632 6.996 3.008C7.644 3.376 8.144 3.864 8.496 4.472L7.536 5.036C7.296 4.58 6.932 4.216 6.444 3.944C5.964 3.664 5.432 3.524 4.848 3.524C3.888 3.524 3.1 3.84 2.484 4.472C1.868 5.096 1.56 5.872 1.56 6.8C1.56 7.728 1.868 8.504 2.484 9.128C3.108 9.752 3.912 10.064 4.896 10.064C5.736 10.064 6.416 9.86 6.936 9.452C7.456 9.036 7.772 8.5 7.884 7.844H4.8V6.836H9ZM11.373 9.944H15.273V11H10.257V2.6H15.213V3.656H11.373V6.236H14.913V7.28H11.373V9.944ZM21.8963 2.6V3.656H19.4123V11H18.3083V3.656H15.8363V2.6H21.8963ZM25.8008 2.6H26.9168V11H25.8008V2.6ZM33.9948 2.6V3.656H31.5108V11H30.4068V3.656H27.9348V2.6H33.9948ZM44.8832 9.884C44.0432 10.732 43.0152 11.156 41.7992 11.156C40.5832 11.156 39.5552 10.732 38.7152 9.884C37.8752 9.036 37.4552 8.008 37.4552 6.8C37.4552 5.584 37.8752 4.556 38.7152 3.716C39.5552 2.868 40.5832 2.444 41.7992 2.444C43.0152 2.444 44.0432 2.868 44.8832 3.716C45.7312 4.556 46.1552 5.584 46.1552 6.8C46.1552 8.008 45.7312 9.036 44.8832 9.884ZM39.4832 9.128C40.1072 9.752 40.8792 10.064 41.7992 10.064C42.7192 10.064 43.4872 9.752 44.1032 9.128C44.7272 8.496 45.0392 7.72 45.0392 6.8C45.0392 5.872 44.7272 5.096 44.1032 4.472C43.4872 3.84 42.7192 3.524 41.7992 3.524C40.8792 3.524 40.1072 3.84 39.4832 4.472C38.8672 5.096 38.5592 5.872 38.5592 6.8C38.5592 7.72 38.8672 8.496 39.4832 9.128ZM52.6169 2.6H53.7329V11H52.8329L48.5129 4.724V11H47.3969V2.6H48.2969L52.6169 8.864V2.6Z" fill="black"/>
</svg>
