<svg width="104" height="41" viewBox="0 0 104 41" fill="none" xmlns="http://www.w3.org/2000/svg">
<path d="M11.9604 36L10.7251 32.0693H5.03125L3.7959 36H0.314453L5.94092 19.7944H9.92773L15.5654 36H11.9604ZM7.83887 22.894L5.76123 29.5312H9.99512L7.91748 22.894H7.83887ZM23.8771 23.77C26.9317 23.77 28.8072 26.0947 28.8072 29.9805C28.8072 33.855 26.943 36.1909 23.9332 36.1909C22.1812 36.1909 20.8336 35.3374 20.1935 33.9785H20.1261V39.9307H16.8468V23.9609H20.0812V26.061H20.1485C20.7999 24.646 22.1363 23.77 23.8771 23.77ZM22.7765 33.5518C24.4161 33.5518 25.4493 32.1704 25.4493 29.9805C25.4493 27.8018 24.4161 26.3979 22.7765 26.3979C21.1705 26.3979 20.1148 27.8242 20.1148 29.9805C20.1148 32.1592 21.1705 33.5518 22.7765 33.5518ZM37.4333 23.77C40.488 23.77 42.3635 26.0947 42.3635 29.9805C42.3635 33.855 40.4992 36.1909 37.4895 36.1909C35.7375 36.1909 34.3898 35.3374 33.7497 33.9785H33.6823V39.9307H30.403V23.9609H33.6374V26.061H33.7048C34.3562 24.646 35.6926 23.77 37.4333 23.77ZM36.3327 33.5518C37.9724 33.5518 39.0056 32.1704 39.0056 29.9805C39.0056 27.8018 37.9724 26.3979 36.3327 26.3979C34.7268 26.3979 33.6711 27.8242 33.6711 29.9805C33.6711 32.1592 34.7268 33.5518 36.3327 33.5518ZM48.0932 31.3843H51.3612C51.5185 32.7207 52.911 33.5967 54.7079 33.5967C56.516 33.5967 57.7514 32.7319 57.7514 31.5415C57.7514 30.4858 56.9765 29.9019 55.0224 29.4639L52.911 29.0034C49.9237 28.3633 48.4525 26.8472 48.4525 24.4775C48.4525 21.4902 51.0355 19.5137 54.6518 19.5137C58.4252 19.5137 60.7948 21.4565 60.851 24.3877H57.6728C57.5604 23.0176 56.3588 22.1865 54.663 22.1865C52.9896 22.1865 51.8666 22.9839 51.8666 24.1855C51.8666 25.1851 52.6527 25.7466 54.517 26.1733L56.4823 26.5889C59.7279 27.2852 61.143 28.6777 61.143 31.1484C61.143 34.293 58.5937 36.2808 54.5731 36.2808C50.6762 36.2808 48.1942 34.4277 48.0932 31.3843ZM63.7271 21.187H67.0063V23.9609H69.23V26.4316H67.0063V32.1929C67.0063 33.1138 67.4556 33.5518 68.4214 33.5518C68.7134 33.5518 69.0166 33.5293 69.2188 33.4956V35.9102C68.8818 35.9888 68.3203 36.0449 67.6577 36.0449C64.8276 36.0449 63.7271 35.1016 63.7271 32.7544V26.4316H62.0312V23.9609H63.7271V21.187ZM76.2726 36.2583C72.6339 36.2583 70.3092 33.9224 70.3092 29.9692C70.3092 26.0723 72.6676 23.7026 76.2726 23.7026C79.8775 23.7026 82.2359 26.061 82.2359 29.9692C82.2359 33.9336 79.9112 36.2583 76.2726 36.2583ZM76.2726 33.7539C77.8785 33.7539 78.9005 32.395 78.9005 29.9805C78.9005 27.5884 77.8673 26.207 76.2726 26.207C74.6778 26.207 73.6334 27.5884 73.6334 29.9805C73.6334 32.395 74.6554 33.7539 76.2726 33.7539ZM83.8317 36V23.9609H86.9987V26.1284H87.0661C87.4929 24.6011 88.5148 23.77 89.9299 23.77C90.3117 23.77 90.6374 23.8262 90.862 23.8936V26.7798C90.5925 26.6675 90.1433 26.5889 89.6716 26.5889C88.0544 26.5889 87.111 27.5771 87.111 29.2729V36H83.8317ZM97.1072 26.1284C95.6697 26.1284 94.6365 27.2178 94.5242 28.7227H99.6341C99.5667 27.1841 98.5672 26.1284 97.1072 26.1284ZM99.679 32.3164H102.689C102.329 34.6748 100.173 36.2583 97.1971 36.2583C93.491 36.2583 91.2674 33.8887 91.2674 30.0366C91.2674 26.1958 93.5135 23.7026 97.0735 23.7026C100.577 23.7026 102.79 26.0723 102.79 29.7334V30.7329H94.4905V30.9351C94.4905 32.6533 95.5799 33.8325 97.2532 33.8325C98.4549 33.8325 99.3758 33.2373 99.679 32.3164Z" fill="black"/>
<path d="M0.779297 2.54492H3.76172C6.27539 2.54492 7.76367 4.0918 7.76367 6.75781C7.76367 9.42969 6.28125 11 3.76172 11H0.779297V2.54492ZM2.0918 3.67578V9.86328H3.63867C5.43164 9.86328 6.42188 8.76758 6.42188 6.76953C6.42188 4.77734 5.42578 3.67578 3.63867 3.67578H2.0918ZM11.4137 11.1172C9.65 11.1172 8.48984 9.9043 8.48984 7.91797C8.48984 5.9375 9.65586 4.72461 11.4137 4.72461C13.1715 4.72461 14.3375 5.9375 14.3375 7.91797C14.3375 9.9043 13.1773 11.1172 11.4137 11.1172ZM11.4137 10.0742C12.4098 10.0742 13.0484 9.28906 13.0484 7.91797C13.0484 6.55273 12.4039 5.76758 11.4137 5.76758C10.4234 5.76758 9.77891 6.55273 9.77891 7.91797C9.77891 9.28906 10.4234 10.0742 11.4137 10.0742ZM23.3254 4.83594L21.6379 11H20.3195L19.0246 6.38281H18.9953L17.7121 11H16.4055L14.7121 4.83594H15.9777L17.1027 9.6875H17.1262L18.4094 4.83594H19.6281L20.9172 9.6875H20.9465L22.0715 4.83594H23.3254ZM23.9988 11V4.83594H25.2059V5.86719H25.2352C25.5691 5.16406 26.2254 4.73047 27.1746 4.73047C28.534 4.73047 29.3133 5.59766 29.3133 7.00977V11H28.0418V7.25586C28.0418 6.33008 27.6082 5.82031 26.7293 5.82031C25.8387 5.82031 25.2645 6.45312 25.2645 7.4082V11H23.9988ZM30.4848 11V2.54492H31.7504V11H30.4848ZM35.5996 11.1172C33.8359 11.1172 32.6758 9.9043 32.6758 7.91797C32.6758 5.9375 33.8418 4.72461 35.5996 4.72461C37.3574 4.72461 38.5234 5.9375 38.5234 7.91797C38.5234 9.9043 37.3633 11.1172 35.5996 11.1172ZM35.5996 10.0742C36.5957 10.0742 37.2344 9.28906 37.2344 7.91797C37.2344 6.55273 36.5898 5.76758 35.5996 5.76758C34.6094 5.76758 33.9648 6.55273 33.9648 7.91797C33.9648 9.28906 34.6094 10.0742 35.5996 10.0742ZM41.5582 10.1035C42.443 10.1035 43.1344 9.49414 43.1344 8.69141V8.20508L41.6168 8.29883C40.8609 8.35156 40.4332 8.68555 40.4332 9.21289C40.4332 9.75195 40.8785 10.1035 41.5582 10.1035ZM41.2066 11.1055C39.9996 11.1055 39.1559 10.3555 39.1559 9.24805C39.1559 8.16992 39.982 7.50781 41.4469 7.42578L43.1344 7.32617V6.85156C43.1344 6.16602 42.6715 5.75586 41.898 5.75586C41.1656 5.75586 40.7086 6.10742 40.5973 6.6582H39.402C39.4723 5.54492 40.4215 4.72461 41.9449 4.72461C43.4391 4.72461 44.3941 5.51562 44.3941 6.75195V11H43.1813V9.98633H43.152C42.7945 10.6719 42.0152 11.1055 41.2066 11.1055ZM47.8391 11.1055C46.2805 11.1055 45.2492 9.86328 45.2492 7.91797C45.2492 5.97266 46.2805 4.73633 47.8273 4.73633C48.7121 4.73633 49.4152 5.18164 49.7609 5.86133H49.7844V2.54492H51.0559V11H49.8254V9.95117H49.802C49.4387 10.6543 48.7355 11.1055 47.8391 11.1055ZM48.173 5.80273C47.1711 5.80273 46.5441 6.62305 46.5441 7.91797C46.5441 9.21875 47.1711 10.0332 48.173 10.0332C49.1457 10.0332 49.7961 9.20703 49.7961 7.91797C49.7961 6.64062 49.1457 5.80273 48.173 5.80273ZM57.2426 11.1172C55.4789 11.1172 54.3187 9.9043 54.3187 7.91797C54.3187 5.9375 55.4848 4.72461 57.2426 4.72461C59.0004 4.72461 60.1664 5.9375 60.1664 7.91797C60.1664 9.9043 59.0062 11.1172 57.2426 11.1172ZM57.2426 10.0742C58.2387 10.0742 58.8773 9.28906 58.8773 7.91797C58.8773 6.55273 58.2328 5.76758 57.2426 5.76758C56.2523 5.76758 55.6078 6.55273 55.6078 7.91797C55.6078 9.28906 56.2523 10.0742 57.2426 10.0742ZM61.0449 11V4.83594H62.252V5.86719H62.2812C62.6152 5.16406 63.2715 4.73047 64.2207 4.73047C65.5801 4.73047 66.3594 5.59766 66.3594 7.00977V11H65.0879V7.25586C65.0879 6.33008 64.6543 5.82031 63.7754 5.82031C62.8848 5.82031 62.3105 6.45312 62.3105 7.4082V11H61.0449ZM70.1906 3.37695H71.4621V4.83594H72.634V5.83789H71.4621V9.23633C71.4621 9.76953 71.6965 10.0098 72.2121 10.0098C72.341 10.0098 72.5461 9.99805 72.6281 9.98047V10.9824C72.4875 11.0176 72.2063 11.041 71.925 11.041C70.677 11.041 70.1906 10.5664 70.1906 9.37695V5.83789H69.2941V4.83594H70.1906V3.37695ZM73.6238 11V2.54492H74.8777V5.86719H74.907C75.2469 5.14648 75.9207 4.73047 76.8582 4.73047C78.2117 4.73047 79.0203 5.63281 79.0203 7.02734V11H77.7488V7.27344C77.7488 6.36523 77.2918 5.82031 76.4012 5.82031C75.4637 5.82031 74.8895 6.46484 74.8895 7.4375V11H73.6238ZM82.723 5.74414C81.8383 5.74414 81.2172 6.41797 81.1527 7.34961H84.2348C84.2055 6.40625 83.6078 5.74414 82.723 5.74414ZM84.2289 9.18945H85.4301C85.2543 10.3145 84.1879 11.1172 82.7758 11.1172C80.9652 11.1172 79.8695 9.89258 79.8695 7.94727C79.8695 6.01367 80.9828 4.72461 82.723 4.72461C84.434 4.72461 85.5004 5.93164 85.5004 7.80078V8.23438H81.1469V8.31055C81.1469 9.38281 81.7914 10.0918 82.8051 10.0918C83.5258 10.0918 84.059 9.72852 84.2289 9.18945Z" fill="black"/>
</svg>
