<svg width="30" height="30" viewBox="0 0 30 30" fill="none" xmlns="http://www.w3.org/2000/svg">
<g clip-path="url(#clip0_3285_387)">
<path d="M11.0119 18.6497L18.6494 4.85349C18.7544 4.66349 18.8594 4.47599 18.9544 4.27974C19.0406 4.10224 19.1131 3.92349 19.1606 3.72974C19.2606 3.32224 19.2331 2.89724 19.0781 2.50849C18.9267 2.12601 18.6546 1.80342 18.3031 1.58974C17.9577 1.38034 17.5511 1.29522 17.1506 1.34849C16.7506 1.40224 16.3844 1.59099 16.0956 1.88599C15.9581 2.02349 15.8456 2.17974 15.7419 2.34599C15.6269 2.52849 15.5231 2.71849 15.4181 2.90849L14.9356 3.77974L14.4519 2.90724C14.3469 2.71849 14.2431 2.52849 14.1281 2.34599C14.0271 2.18 13.9085 2.02536 13.7744 1.88474C13.4927 1.5929 13.1212 1.40406 12.7194 1.34849C12.3194 1.29552 11.9132 1.38062 11.5681 1.58974C11.2167 1.80349 10.9446 2.12606 10.7931 2.50849C10.6375 2.89668 10.6086 3.32414 10.7106 3.72974C10.7581 3.92349 10.8306 4.10224 10.9156 4.27974C11.0106 4.47599 11.1156 4.66349 11.2206 4.85349L12.7806 7.67099L6.70314 18.6485H2.53814C2.32814 18.6485 2.11814 18.6485 1.90939 18.661C1.71939 18.6722 1.53439 18.696 1.34939 18.7497C0.961887 18.8622 0.621887 19.0997 0.376887 19.4347C0.132136 19.7719 0.000224782 20.1779 2.87021e-07 20.5945C-0.000224208 21.0112 0.13125 21.4173 0.375637 21.7547C0.621887 22.0897 0.960637 22.326 1.34939 22.4397C1.53439 22.4935 1.71939 22.5172 1.90939 22.5285C2.11814 22.541 2.32814 22.541 2.53814 22.541H18.9094C18.9594 22.4318 19.0012 22.3189 19.0344 22.2035C19.5531 20.4335 18.2644 18.6485 16.4906 18.6485L11.0119 18.6497ZM3.89189 23.1772L2.90189 25.0522C2.79939 25.2472 2.69564 25.4397 2.60314 25.641C2.51746 25.822 2.45045 26.0114 2.40314 26.206C2.30283 26.6224 2.33072 27.0594 2.48314 27.4597C2.63439 27.8572 2.90064 28.1885 3.24189 28.4035C3.58189 28.6185 3.97814 28.706 4.36814 28.6497C4.76064 28.5947 5.11814 28.4022 5.40064 28.0997C5.53564 27.956 5.64564 27.7972 5.74814 27.6272C5.86064 27.4397 5.96189 27.2447 6.06439 27.0497L7.50064 24.3297C7.38814 24.1422 6.31689 22.4922 3.89189 23.1772ZM29.6244 19.4197C29.3832 19.0934 29.0408 18.856 28.6506 18.7447C28.4679 18.6943 28.28 18.6646 28.0906 18.656C27.8806 18.6435 27.6719 18.6435 27.4619 18.6435H23.3106L17.8231 8.87474C17.1032 9.63062 16.6335 10.59 16.4781 11.6222C16.2772 12.9134 16.5176 14.2346 17.1606 15.3722L23.7531 27.1135C23.8581 27.301 23.9619 27.4885 24.0769 27.6685C24.1819 27.831 24.2944 27.9847 24.4306 28.1235C24.7194 28.4135 25.0856 28.5985 25.4869 28.6522C25.8869 28.7047 26.2906 28.6222 26.6394 28.4147C26.9901 28.2049 27.2627 27.8863 27.4156 27.5072C27.5719 27.1235 27.5981 26.7047 27.4981 26.3022C27.449 26.1146 27.3798 25.9327 27.2919 25.7597C27.1981 25.566 27.0919 25.381 26.9869 25.1935L25.4669 22.486H27.4619C27.6719 22.486 27.8806 22.486 28.0906 22.4747C28.2806 22.4635 28.4656 22.4397 28.6506 22.3872C29.0415 22.2758 29.3844 22.038 29.6256 21.711C29.87 21.3793 30.0015 20.978 30.0006 20.566C30.0015 20.154 29.87 19.7527 29.6256 19.421" fill="black"/>
</g>
<defs>
<clipPath id="clip0_3285_387">
<rect width="30" height="30" fill="white"/>
</clipPath>
</defs>
</svg>
