<svg width="40" height="40" viewBox="0 0 31 31" fill="none" xmlns="http://www.w3.org/2000/svg">
<path fill-rule="evenodd" clip-rule="evenodd" d="M7.68815 0.415527C3.63303 0.415527 0.345703 3.71298 0.345703 7.78059C0.345703 11.8482 3.63303 15.1457 7.68815 15.1457H15.0306V7.78059C15.0306 3.71298 11.7433 0.415527 7.68815 0.415527ZM7.73394 4.72738C6.02759 4.72738 4.64431 6.11492 4.64431 7.82653C4.64431 9.53814 6.02759 10.9257 7.73394 10.9257H10.8236V7.82653C10.8236 6.11492 9.4403 4.72738 7.73394 4.72738Z" fill="white"/>
<path fill-rule="evenodd" clip-rule="evenodd" d="M22.8249 0.415527C26.88 0.415527 30.1673 3.71298 30.1673 7.78059C30.1673 11.8482 26.88 15.1457 22.8249 15.1457H15.4824V7.78059C15.4824 3.71298 18.7698 0.415527 22.8249 0.415527ZM22.7791 4.72738C24.4854 4.72738 25.8687 6.11492 25.8687 7.82653C25.8687 9.53814 24.4854 10.9257 22.7791 10.9257H19.6895V7.82653C19.6895 6.11492 21.0727 4.72738 22.7791 4.72738Z" fill="white"/>
<path fill-rule="evenodd" clip-rule="evenodd" d="M7.68815 30.2371C3.63303 30.2371 0.345703 26.9397 0.345703 22.8721C0.345703 18.8045 3.63303 15.507 7.68815 15.507H15.0306V22.8721C15.0306 26.9397 11.7433 30.2371 7.68815 30.2371ZM7.73394 25.9253C6.02759 25.9253 4.64431 24.5378 4.64431 22.8261C4.64431 21.1145 6.02759 19.727 7.73394 19.727H10.8236V22.8261C10.8236 24.5378 9.4403 25.9253 7.73394 25.9253Z" fill="white"/>
<path fill-rule="evenodd" clip-rule="evenodd" d="M22.8249 30.2371C26.88 30.2371 30.1673 26.9397 30.1673 22.8721C30.1673 18.8045 26.88 15.507 22.8249 15.507H15.4824V22.8721C15.4824 26.9397 18.7698 30.2371 22.8249 30.2371ZM22.7791 25.9253C24.4854 25.9253 25.8687 24.5378 25.8687 22.8261C25.8687 21.1145 24.4854 19.727 22.7791 19.727H19.6895V22.8261C19.6895 24.5378 21.0727 25.9253 22.7791 25.9253Z" fill="white"/>
</svg>
