<svg width="65" height="65" viewBox="0 0 65 65" fill="none" xmlns="http://www.w3.org/2000/svg">
<path d="M57.2302 30.6208L34.8865 2.18331C34.604 1.81949 34.2421 1.52505 33.8285 1.3225C33.4148 1.11995 32.9603 1.01465 32.4997 1.01465C32.0392 1.01465 31.5847 1.11995 31.171 1.3225C30.7573 1.52505 30.3955 1.81949 30.113 2.18331L7.76927 30.6208C7.33617 31.1512 7.09961 31.815 7.09961 32.4997C7.09961 33.1845 7.33617 33.8482 7.76927 34.3786L30.113 62.8161C30.3955 63.18 30.7573 63.4744 31.171 63.6769C31.5847 63.8795 32.0392 63.9848 32.4997 63.9848C32.9603 63.9848 33.4148 63.8795 33.8285 63.6769C34.2421 63.4744 34.604 63.18 34.8865 62.8161L57.2302 34.3786C57.6633 33.8482 57.8999 33.1845 57.8999 32.4997C57.8999 31.815 57.6633 31.1512 57.2302 30.6208ZM35.5466 12.8728L50.0447 31.3318L35.5466 37.9333V12.8728ZM29.4529 37.9333L14.9548 31.3318L29.4529 12.8728V37.9333ZM29.4529 44.6111V52.1267L20.2869 40.447L29.4529 44.6111ZM35.5466 44.6111L44.7126 40.447L35.5466 52.1267V44.6111Z" fill="white"/>
</svg>
